<svg width="493" height="244" viewBox="0 0 493 244" fill="none" xmlns="http://www.w3.org/2000/svg">
<path d="M418.07 243.604V190.715H338V153.861L405.477 4H469.377V153.427H492.699V190.715H469.378V243.607L418.07 243.604ZM379.046 153.427H418.07V54.436L379.046 153.427Z" fill="#F00804"/>
<path d="M418.07 243.604V190.715H338V153.861L405.477 4H469.377V153.427H492.699V190.715H469.378V243.607L418.07 243.604ZM379.046 153.427H418.07V54.436L379.046 153.427Z" fill="url(#paint0_linear)"/>
<path d="M80.07 243.604V190.715H0V153.861L67.477 4H131.377V153.427H154.699V190.715H131.378V243.607L80.07 243.604ZM41.046 153.427H80.07V54.436L41.046 153.427Z" fill="#F00804"/>
<path d="M80.07 243.604V190.715H0V153.861L67.477 4H131.377V153.427H154.699V190.715H131.378V243.607L80.07 243.604ZM41.046 153.427H80.07V54.436L41.046 153.427Z" fill="url(#paint1_linear)"/>
<path d="M325.274 96.2497V77.6268C325.274 75.4848 325.211 73.3418 325.081 71.2588L311.781 72.0957C311.391 64.0357 309.479 56.1222 306.147 48.7728L318.223 43.1118V38.4017L316.246 39.3288C313.286 33.9211 309.566 28.9654 305.2 24.6127C303.352 22.7789 301.387 21.067 299.317 19.4877L291.244 30.0728C284.745 25.2662 277.29 21.9125 269.382 20.2388L272.358 7.28276V2.57275L270.673 6.95276C263.139 5.42338 255.468 4.67376 247.781 4.71576C246.897 4.71576 246.02 4.72342 245.151 4.73875L245.389 18.0798C237.331 18.133 229.316 19.2688 221.561 21.4568L217.761 8.65675C209.062 11.1356 200.959 15.3597 193.945 21.0717L191.529 18.4597V23.1698L195.246 27.1878L200.599 32.9758C200.225 33.3228 199.807 33.6237 199.445 33.9837C198.645 34.7787 197.926 35.6378 197.186 36.4778C192.902 41.2791 189.559 46.8422 187.329 52.8778L174.866 48.2628C171.642 57.3026 169.998 66.8301 170.006 76.4277L183.328 76.5748C183.328 76.9288 183.29 77.2588 183.29 77.6158V100.737H170.004V124.898H183.293V149.059H170.004V171.632C170.004 172.246 170.01 172.855 170.021 173.459L183.356 173.22C183.388 181.291 184.988 189.279 188.066 196.74L177.773 201.153L175.794 197.289V201.999C179.286 210.144 184.444 217.47 190.935 223.504C191.914 224.416 192.92 225.297 193.952 226.147L202.439 215.815C208.322 220.75 215.249 224.285 222.698 226.152L219.368 238.839C228.638 241.31 238.184 242.602 247.778 242.683C249.265 242.683 250.731 242.658 252.178 242.608L251.716 229.262C259.777 229.088 267.768 227.712 275.424 225.182L279.792 237.763C288.835 234.697 297.129 229.756 304.13 223.263C304.493 222.923 304.855 222.58 305.208 222.23V217.521L302.469 219.439L295.864 212.719C301.664 207.09 306.048 200.168 308.658 192.519L321.293 196.867C324.01 188.732 325.357 180.203 325.278 171.627V168.739H311.985V144.573H325.274V120.411H311.985V96.2497H325.274ZM258.454 77.3008V150.429L259.741 165.842V171.988C259.741 172.642 259.109 174.168 258.923 175.766C258.737 177.364 256.517 178.195 256.007 179.055C255.497 179.915 254.877 180.876 254.136 181.944C253.391 183.011 252.321 183.808 251.085 184.216C248.499 185.026 245.741 185.111 243.11 184.461C242.128 184.217 241.223 183.731 240.477 183.048C239.927 182.529 239.455 182.033 238.993 181.539C237.754 178.732 237.093 174.976 237.093 170.153V73.0608C237.129 71.9305 237.221 70.8027 237.371 69.6817C237.463 68.3945 237.817 67.1397 238.411 65.9938C238.919 65.1358 239.543 64.1734 240.282 63.1068C241.026 62.039 242.097 61.2414 243.333 60.8338C245.919 60.0236 248.677 59.9388 251.308 60.5888C252.29 60.8314 253.196 61.3173 253.941 62.0018C254.635 62.6564 255.259 63.2897 255.814 63.9017C256.44 64.6535 256.89 65.5357 257.131 66.4837C257.455 67.5897 257.707 68.4908 257.893 69.1838C258.117 70.1319 258.257 71.098 258.311 72.0708C258.401 73.3008 258.451 74.1818 258.451 74.7138L258.454 77.3008Z" fill="#ABB5B7"/>
<path style="mix-blend-mode:multiply" d="M325.274 96.2497V77.6268C325.274 75.4848 325.211 73.3418 325.081 71.2588L311.781 72.0957C311.391 64.0357 309.479 56.1222 306.147 48.7728L318.223 43.1118V38.4017L316.246 39.3288C313.286 33.9211 309.566 28.9654 305.2 24.6127C303.352 22.7789 301.387 21.067 299.317 19.4877L291.244 30.0728C284.745 25.2662 277.29 21.9125 269.382 20.2388L272.358 7.28276V2.57275L270.673 6.95276C263.139 5.42338 255.468 4.67376 247.781 4.71576C246.897 4.71576 246.02 4.72342 245.151 4.73875L245.389 18.0798C237.331 18.133 229.316 19.2688 221.561 21.4568L217.761 8.65675C209.062 11.1356 200.959 15.3597 193.945 21.0717L191.529 18.4597V23.1698L195.246 27.1878L200.599 32.9758C200.225 33.3228 199.807 33.6237 199.445 33.9837C198.645 34.7787 197.926 35.6378 197.186 36.4778C192.902 41.2791 189.559 46.8422 187.329 52.8778L174.866 48.2628C171.642 57.3026 169.998 66.8301 170.006 76.4277L183.328 76.5748C183.328 76.9288 183.29 77.2588 183.29 77.6158V100.737H170.004V124.898H183.293V149.059H170.004V171.632C170.004 172.246 170.01 172.855 170.021 173.459L183.356 173.22C183.388 181.291 184.988 189.279 188.066 196.74L177.773 201.153L175.794 197.289V201.999C179.286 210.144 184.444 217.47 190.935 223.504C191.914 224.416 192.92 225.297 193.952 226.147L202.439 215.815C208.322 220.75 215.249 224.285 222.698 226.152L219.368 238.839C228.638 241.31 238.184 242.602 247.778 242.683C249.265 242.683 250.731 242.658 252.178 242.608L251.716 229.262C259.777 229.088 267.768 227.712 275.424 225.182L279.792 237.763C288.835 234.697 297.129 229.756 304.13 223.263C304.493 222.923 304.855 222.58 305.208 222.23V217.521L302.469 219.439L295.864 212.719C301.664 207.09 306.048 200.168 308.658 192.519L321.293 196.867C324.01 188.732 325.357 180.203 325.278 171.627V168.739H311.985V144.573H325.274V120.411H311.985V96.2497H325.274ZM258.454 77.3008V150.429L259.741 165.842V171.988C259.741 172.642 259.109 174.168 258.923 175.766C258.737 177.364 256.517 178.195 256.007 179.055C255.497 179.915 254.877 180.876 254.136 181.944C253.391 183.011 252.321 183.808 251.085 184.216C248.499 185.026 245.741 185.111 243.11 184.461C242.128 184.217 241.223 183.731 240.477 183.048C239.927 182.529 239.455 182.033 238.993 181.539C237.754 178.732 237.093 174.976 237.093 170.153V73.0608C237.129 71.9305 237.221 70.8027 237.371 69.6817C237.463 68.3945 237.817 67.1397 238.411 65.9938C238.919 65.1358 239.543 64.1734 240.282 63.1068C241.026 62.039 242.097 61.2414 243.333 60.8338C245.919 60.0236 248.677 59.9388 251.308 60.5888C252.29 60.8314 253.196 61.3173 253.941 62.0018C254.635 62.6564 255.259 63.2897 255.814 63.9017C256.44 64.6535 256.89 65.5357 257.131 66.4837C257.455 67.5897 257.707 68.4908 257.893 69.1838C258.117 70.1319 258.257 71.098 258.311 72.0708C258.401 73.3008 258.451 74.1818 258.451 74.7138L258.454 77.3008Z" fill="url(#paint2_linear)"/>
<path d="M325.274 96.2497V77.6268C325.274 75.4848 325.211 73.3418 325.081 71.2588L311.781 72.0957C311.391 64.0357 309.479 56.1222 306.147 48.7728L318.223 43.1118V38.4017L316.246 39.3288C313.286 33.9211 309.566 28.9654 305.2 24.6127C303.352 22.7789 301.387 21.067 299.317 19.4877L291.244 30.0728C284.745 25.2662 277.29 21.9125 269.382 20.2388L272.358 7.28276V2.57275L270.673 6.95276C263.139 5.42338 255.468 4.67376 247.781 4.71576C246.897 4.71576 246.02 4.72342 245.151 4.73875L245.389 18.0798C237.331 18.133 229.316 19.2688 221.561 21.4568L217.761 8.65675C209.062 11.1356 200.959 15.3597 193.945 21.0717L191.529 18.4597V23.1698L195.246 27.1878L200.599 32.9758C200.225 33.3228 199.807 33.6237 199.445 33.9837C198.645 34.7787 197.926 35.6378 197.186 36.4778C192.902 41.2791 189.559 46.8422 187.329 52.8778L174.866 48.2628C171.642 57.3026 169.998 66.8301 170.006 76.4277L183.328 76.5748C183.328 76.9288 183.29 77.2588 183.29 77.6158V100.737H170.004V124.898H183.293V149.059H170.004V171.632C170.004 172.246 170.01 172.855 170.021 173.459L183.356 173.22C183.388 181.291 184.988 189.279 188.066 196.74L177.773 201.153L175.794 197.289V201.999C179.286 210.144 184.444 217.47 190.935 223.504C191.914 224.416 192.92 225.297 193.952 226.147L202.439 215.815C208.322 220.75 215.249 224.285 222.698 226.152L219.368 238.839C228.638 241.31 238.184 242.602 247.778 242.683C249.265 242.683 250.731 242.658 252.178 242.608L251.716 229.262C259.777 229.088 267.768 227.712 275.424 225.182L279.792 237.763C288.835 234.697 297.129 229.756 304.13 223.263C304.493 222.923 304.855 222.58 305.208 222.23V217.521L302.469 219.439L295.864 212.719C301.664 207.09 306.048 200.168 308.658 192.519L321.293 196.867C324.01 188.732 325.357 180.203 325.278 171.627V168.739H311.985V144.573H325.274V120.411H311.985V96.2497H325.274ZM258.454 77.3008V150.429L259.741 165.842V171.988C259.741 172.642 259.109 174.168 258.923 175.766C258.737 177.364 256.517 178.195 256.007 179.055C255.497 179.915 254.877 180.876 254.136 181.944C253.391 183.011 252.321 183.808 251.085 184.216C248.499 185.026 245.741 185.111 243.11 184.461C242.128 184.217 241.223 183.731 240.477 183.048C239.927 182.529 239.455 182.033 238.993 181.539C237.754 178.732 237.093 174.976 237.093 170.153V73.0608C237.129 71.9305 237.221 70.8027 237.371 69.6817C237.463 68.3945 237.817 67.1397 238.411 65.9938C238.919 65.1358 239.543 64.1734 240.282 63.1068C241.026 62.039 242.097 61.2414 243.333 60.8338C245.919 60.0236 248.677 59.9388 251.308 60.5888C252.29 60.8314 253.196 61.3173 253.941 62.0018C254.635 62.6564 255.259 63.2897 255.814 63.9017C256.44 64.6535 256.89 65.5357 257.131 66.4837C257.455 67.5897 257.707 68.4908 257.893 69.1838C258.117 70.1319 258.257 71.098 258.311 72.0708C258.401 73.3008 258.451 74.1818 258.451 74.7138L258.454 77.3008Z" fill="url(#paint3_linear)"/>
<path d="M325.274 96.2497V77.6268C325.274 75.4848 325.211 73.3418 325.081 71.2588L311.781 72.0957C311.391 64.0357 309.479 56.1222 306.147 48.7728L318.223 43.1118V38.4017L316.246 39.3288C313.286 33.9211 309.566 28.9654 305.2 24.6127C303.352 22.7789 301.387 21.067 299.317 19.4877L291.244 30.0728C284.745 25.2662 277.29 21.9125 269.382 20.2388L272.358 7.28276V2.57275L270.673 6.95276C263.139 5.42338 255.468 4.67376 247.781 4.71576C246.897 4.71576 246.02 4.72342 245.151 4.73875L245.389 18.0798C237.331 18.133 229.316 19.2688 221.561 21.4568L217.761 8.65675C209.062 11.1356 200.959 15.3597 193.945 21.0717L191.529 18.4597V23.1698L195.246 27.1878L200.599 32.9758C200.225 33.3228 199.807 33.6237 199.445 33.9837C198.645 34.7787 197.926 35.6378 197.186 36.4778C192.902 41.2791 189.559 46.8422 187.329 52.8778L174.866 48.2628C171.642 57.3026 169.998 66.8301 170.006 76.4277L183.328 76.5748C183.328 76.9288 183.29 77.2588 183.29 77.6158V100.737H170.004V124.898H183.293V149.059H170.004V171.632C170.004 172.246 170.01 172.855 170.021 173.459L183.356 173.22C183.388 181.291 184.988 189.279 188.066 196.74L177.773 201.153L175.794 197.289V201.999C179.286 210.144 184.444 217.47 190.935 223.504C191.914 224.416 192.92 225.297 193.952 226.147L202.439 215.815C208.322 220.75 215.249 224.285 222.698 226.152L219.368 238.839C228.638 241.31 238.184 242.602 247.778 242.683C249.265 242.683 250.731 242.658 252.178 242.608L251.716 229.262C259.777 229.088 267.768 227.712 275.424 225.182L279.792 237.763C288.835 234.697 297.129 229.756 304.13 223.263C304.493 222.923 304.855 222.58 305.208 222.23V217.521L302.469 219.439L295.864 212.719C301.664 207.09 306.048 200.168 308.658 192.519L321.293 196.867C324.01 188.732 325.357 180.203 325.278 171.627V168.739H311.985V144.573H325.274V120.411H311.985V96.2497H325.274ZM258.454 77.3008V150.429L259.741 165.842V171.988C259.741 172.642 259.109 174.168 258.923 175.766C258.737 177.364 256.517 178.195 256.007 179.055C255.497 179.915 254.877 180.876 254.136 181.944C253.391 183.011 252.321 183.808 251.085 184.216C248.499 185.026 245.741 185.111 243.11 184.461C242.128 184.217 241.223 183.731 240.477 183.048C239.927 182.529 239.455 182.033 238.993 181.539C237.754 178.732 237.093 174.976 237.093 170.153V73.0608C237.129 71.9305 237.221 70.8027 237.371 69.6817C237.463 68.3945 237.817 67.1397 238.411 65.9938C238.919 65.1358 239.543 64.1734 240.282 63.1068C241.026 62.039 242.097 61.2414 243.333 60.8338C245.919 60.0236 248.677 59.9388 251.308 60.5888C252.29 60.8314 253.196 61.3173 253.941 62.0018C254.635 62.6564 255.259 63.2897 255.814 63.9017C256.44 64.6535 256.89 65.5357 257.131 66.4837C257.455 67.5897 257.707 68.4908 257.893 69.1838C258.117 70.1319 258.257 71.098 258.311 72.0708C258.401 73.3008 258.451 74.1818 258.451 74.7138L258.454 77.3008Z" fill="url(#paint4_linear)"/>
<path d="M325.272 91.5387V72.9167C325.272 70.7747 325.207 68.6317 325.078 66.5487L311.778 67.3867C311.387 59.3264 309.475 51.4128 306.144 44.0627L318.219 38.4017C314.999 31.5171 310.59 25.2545 305.194 19.9017C303.346 18.0675 301.38 16.3556 299.31 14.7767L291.238 25.3607C284.741 20.5545 277.288 17.2008 269.382 15.5267L272.357 2.56967C264.286 0.796988 256.041 -0.063732 247.777 0.00367215C246.894 0.00367215 246.016 0.0106742 245.148 0.0276742L245.386 13.3677C237.328 13.42 229.313 14.5556 221.557 16.7437L217.757 3.94367C208.011 6.692 199.033 11.6593 191.527 18.4567L200.599 28.2627C200.223 28.6107 199.805 28.9117 199.444 29.2707C194.059 34.5957 189.922 41.0477 187.328 48.1627L174.865 43.5477C171.641 52.5879 169.996 62.1157 170.004 71.7137L183.325 71.8607C183.325 72.2137 183.288 72.5437 183.288 72.9007V96.0217H170V120.183H183.289V144.344H170V166.918C170 167.532 170.006 168.14 170.018 168.744L183.354 168.506C183.385 176.577 184.985 184.565 188.063 192.026L175.793 197.284C179.285 205.428 184.443 212.752 190.935 218.784C191.913 219.697 192.919 220.578 193.953 221.428L202.439 211.095C208.735 216.147 216.046 219.785 223.873 221.76L220.419 234.666C229.355 236.949 238.551 238.058 247.774 237.966C249.262 237.966 250.729 237.941 252.174 237.891L251.711 224.545C259.773 224.371 267.764 222.996 275.42 220.465L279.787 233.047C288.83 229.98 297.123 225.039 304.125 218.547C304.489 218.207 304.85 217.862 305.203 217.514L295.857 208.002C301.656 202.375 306.041 195.456 308.653 187.81L321.289 192.158C324.007 184.023 325.354 175.494 325.275 166.918V164.026H311.985V139.863H325.275V115.702H311.985V91.5387H325.272ZM258.453 72.5917V165.439C258.453 176.99 254.893 182.766 247.773 182.767C240.653 182.767 237.094 176.991 237.096 165.439V68.3517C237.132 67.2214 237.225 66.0937 237.374 64.9727C237.467 63.6851 237.821 62.43 238.415 61.2837C238.922 60.4257 239.546 59.4633 240.286 58.3967C241.03 57.3288 242.101 56.5311 243.337 56.1237C245.923 55.3133 248.682 55.2285 251.313 55.8787C252.295 56.1224 253.199 56.6082 253.945 57.2917C254.639 57.9477 255.263 58.581 255.818 59.1917C256.444 59.9433 256.895 60.8255 257.136 61.7737C257.459 62.8803 257.712 63.7803 257.897 64.4737C258.121 65.4222 258.261 66.3886 258.315 67.3617C258.404 68.5917 258.454 69.4707 258.454 70.0047L258.453 72.5917Z" fill="#221E1F"/>
<path style="mix-blend-mode:multiply" d="M325.272 91.5387V72.9167C325.272 70.7747 325.207 68.6317 325.078 66.5487L311.778 67.3867C311.387 59.3264 309.475 51.4128 306.144 44.0627L318.219 38.4017C314.999 31.5171 310.59 25.2545 305.194 19.9017C303.346 18.0675 301.38 16.3556 299.31 14.7767L291.238 25.3607C284.741 20.5545 277.288 17.2008 269.382 15.5267L272.357 2.56967C264.286 0.796988 256.041 -0.063732 247.777 0.00367215C246.894 0.00367215 246.016 0.0106742 245.148 0.0276742L245.386 13.3677C237.328 13.42 229.313 14.5556 221.557 16.7437L217.757 3.94367C208.011 6.692 199.033 11.6593 191.527 18.4567L200.599 28.2627C200.223 28.6107 199.805 28.9117 199.444 29.2707C194.059 34.5957 189.922 41.0477 187.328 48.1627L174.865 43.5477C171.641 52.5879 169.996 62.1157 170.004 71.7137L183.325 71.8607C183.325 72.2137 183.288 72.5437 183.288 72.9007V96.0217H170V120.183H183.289V144.344H170V166.918C170 167.532 170.006 168.14 170.018 168.744L183.354 168.506C183.385 176.577 184.985 184.565 188.063 192.026L175.793 197.284C179.285 205.428 184.443 212.752 190.935 218.784C191.913 219.697 192.919 220.578 193.953 221.428L202.439 211.095C208.735 216.147 216.046 219.785 223.873 221.76L220.419 234.666C229.355 236.949 238.551 238.058 247.774 237.966C249.262 237.966 250.729 237.941 252.174 237.891L251.711 224.545C259.773 224.371 267.764 222.996 275.42 220.465L279.787 233.047C288.83 229.98 297.123 225.039 304.125 218.547C304.489 218.207 304.85 217.862 305.203 217.514L295.857 208.002C301.656 202.375 306.041 195.456 308.653 187.81L321.289 192.158C324.007 184.023 325.354 175.494 325.275 166.918V164.026H311.985V139.863H325.275V115.702H311.985V91.5387H325.272ZM258.453 72.5917V165.439C258.453 176.99 254.893 182.766 247.773 182.767C240.653 182.767 237.094 176.991 237.096 165.439V68.3517C237.132 67.2214 237.225 66.0937 237.374 64.9727C237.467 63.6851 237.821 62.43 238.415 61.2837C238.922 60.4257 239.546 59.4633 240.286 58.3967C241.03 57.3288 242.101 56.5311 243.337 56.1237C245.923 55.3133 248.682 55.2285 251.313 55.8787C252.295 56.1224 253.199 56.6082 253.945 57.2917C254.639 57.9477 255.263 58.581 255.818 59.1917C256.444 59.9433 256.895 60.8255 257.136 61.7737C257.459 62.8803 257.712 63.7803 257.897 64.4737C258.121 65.4222 258.261 66.3886 258.315 67.3617C258.404 68.5917 258.454 69.4707 258.454 70.0047L258.453 72.5917Z" fill="url(#paint5_linear)"/>
<path d="M325.272 91.5387V72.9167C325.272 70.7747 325.207 68.6317 325.078 66.5487L311.778 67.3867C311.387 59.3264 309.475 51.4128 306.144 44.0627L318.219 38.4017C314.999 31.5171 310.59 25.2545 305.194 19.9017C303.346 18.0675 301.38 16.3556 299.31 14.7767L291.238 25.3607C284.741 20.5545 277.288 17.2008 269.382 15.5267L272.357 2.56967C264.286 0.796988 256.041 -0.063732 247.777 0.00367215C246.894 0.00367215 246.016 0.0106742 245.148 0.0276742L245.386 13.3677C237.328 13.42 229.313 14.5556 221.557 16.7437L217.757 3.94367C208.011 6.692 199.033 11.6593 191.527 18.4567L200.599 28.2627C200.223 28.6107 199.805 28.9117 199.444 29.2707C194.059 34.5957 189.922 41.0477 187.328 48.1627L174.865 43.5477C171.641 52.5879 169.996 62.1157 170.004 71.7137L183.325 71.8607C183.325 72.2137 183.288 72.5437 183.288 72.9007V96.0217H170V120.183H183.289V144.344H170V166.918C170 167.532 170.006 168.14 170.018 168.744L183.354 168.506C183.385 176.577 184.985 184.565 188.063 192.026L175.793 197.284C179.285 205.428 184.443 212.752 190.935 218.784C191.913 219.697 192.919 220.578 193.953 221.428L202.439 211.095C208.735 216.147 216.046 219.785 223.873 221.76L220.419 234.666C229.355 236.949 238.551 238.058 247.774 237.966C249.262 237.966 250.729 237.941 252.174 237.891L251.711 224.545C259.773 224.371 267.764 222.996 275.42 220.465L279.787 233.047C288.83 229.98 297.123 225.039 304.125 218.547C304.489 218.207 304.85 217.862 305.203 217.514L295.857 208.002C301.656 202.375 306.041 195.456 308.653 187.81L321.289 192.158C324.007 184.023 325.354 175.494 325.275 166.918V164.026H311.985V139.863H325.275V115.702H311.985V91.5387H325.272ZM258.453 72.5917V165.439C258.453 176.99 254.893 182.766 247.773 182.767C240.653 182.767 237.094 176.991 237.096 165.439V68.3517C237.132 67.2214 237.225 66.0937 237.374 64.9727C237.467 63.6851 237.821 62.43 238.415 61.2837C238.922 60.4257 239.546 59.4633 240.286 58.3967C241.03 57.3288 242.101 56.5311 243.337 56.1237C245.923 55.3133 248.682 55.2285 251.313 55.8787C252.295 56.1224 253.199 56.6082 253.945 57.2917C254.639 57.9477 255.263 58.581 255.818 59.1917C256.444 59.9433 256.895 60.8255 257.136 61.7737C257.459 62.8803 257.712 63.7803 257.897 64.4737C258.121 65.4222 258.261 66.3886 258.315 67.3617C258.404 68.5917 258.454 69.4707 258.454 70.0047L258.453 72.5917Z" fill="url(#paint6_linear)"/>
<path d="M247.632 192.678C244.932 192.686 242.264 192.091 239.824 190.938L240.854 188.753C243.279 189.892 245.953 190.4 248.627 190.231C251.301 190.061 253.889 189.219 256.152 187.783C258.414 186.347 260.277 184.364 261.569 182.016C262.86 179.668 263.538 177.032 263.54 174.353V63.6145C263.506 59.4177 261.816 55.4041 258.836 52.4482C255.857 49.4923 251.83 47.8336 247.633 47.8336C243.436 47.8336 239.409 49.4923 236.43 52.4482C233.45 55.4041 231.76 59.4177 231.727 63.6145V84.0655H229.311V63.6145C229.311 58.7551 231.241 54.0947 234.677 50.6585C238.113 47.2224 242.774 45.292 247.633 45.292C252.492 45.292 257.153 47.2224 260.589 50.6585C264.025 54.0947 265.956 58.7551 265.956 63.6145V174.357C265.95 179.214 264.017 183.872 260.582 187.306C257.147 190.741 252.489 192.673 247.632 192.678V192.678Z" fill="url(#paint7_linear)"/>
<path d="M303.495 180.538L301.195 179.798C302.7 175.132 303.466 170.259 303.465 165.355V74.4435C303.465 46.3295 278.419 23.4585 247.634 23.4585C216.849 23.4585 191.806 46.3295 191.806 74.4435V101.179H189.389V74.4435C189.389 44.9985 215.519 21.0435 247.634 21.0435C279.749 21.0435 305.881 44.9995 305.881 74.4435V165.36C305.883 170.513 305.078 175.635 303.495 180.538V180.538Z" fill="url(#paint8_linear)"/>
<path style="mix-blend-mode:multiply" d="M288.701 195.571C288.701 195.571 287.245 197.136 284.624 199.796C283.16 200.954 281.5 202.558 279.35 204.06L275.894 206.409C274.65 207.197 273.234 207.843 271.814 208.62C270.324 209.407 268.782 210.09 267.199 210.666C266.385 210.988 265.558 211.317 264.719 211.652C263.852 211.903 262.971 212.156 262.076 212.412L259.353 213.193C258.431 213.434 257.466 213.549 256.505 213.738C254.549 214.151 252.563 214.4 250.566 214.482C249.55 214.54 248.525 214.599 247.492 214.66C246.447 214.7 245.402 214.681 244.36 214.602C243.334 214.556 242.3 214.511 241.26 214.467C240.217 214.408 239.142 214.191 238.075 214.056L234.856 213.582L231.707 212.803C229.593 212.296 227.516 211.644 225.492 210.853L223.958 210.285L222.488 209.577L219.558 208.158C217.635 207.158 215.836 205.95 214.001 204.858C212.307 203.548 210.539 202.358 208.961 200.981C207.39 199.635 205.89 198.209 204.469 196.707C203.073 195.276 201.778 193.751 200.592 192.142C199.42 190.632 198.351 189.045 197.392 187.392C196.424 185.865 195.56 184.276 194.805 182.635C194.046 181.129 193.379 179.58 192.805 177.996C192.29 176.46 191.717 175.017 191.32 173.596C190.997 172.159 190.69 170.799 190.398 169.517C189.86 166.954 189.742 164.659 189.466 162.811C189.391 159.055 189.395 156.928 189.395 156.928L189.934 162.761C190.325 164.583 190.584 166.832 191.274 169.319C191.639 170.553 192.026 171.869 192.434 173.254C192.905 174.615 193.503 176.015 194.067 177.489C194.686 179.01 195.395 180.493 196.192 181.93C196.986 183.494 197.884 185.004 198.881 186.448C199.871 188.009 200.966 189.502 202.158 190.917C203.352 192.431 204.629 193.878 205.983 195.252C207.371 196.681 208.832 198.037 210.361 199.315C211.898 200.622 213.62 201.74 215.261 202.98C217.042 204.008 218.781 205.153 220.641 206.085L223.473 207.41L224.888 208.077L226.365 208.6C228.296 209.387 230.281 210.038 232.304 210.549L235.319 211.337L238.35 211.822C239.364 211.964 240.343 212.189 241.376 212.262C242.415 212.319 243.448 212.377 244.476 212.436C245.473 212.524 246.475 212.556 247.476 212.531L250.442 212.394C252.369 212.326 254.29 212.126 256.19 211.794C257.124 211.648 258.063 211.575 258.967 211.374C259.867 211.155 260.753 210.935 261.628 210.721L264.228 210.083L266.67 209.217C268.235 208.718 269.764 208.112 271.245 207.401C272.663 206.701 274.06 206.101 275.327 205.41C276.571 204.676 277.753 203.977 278.863 203.324C281.063 201.984 282.782 200.524 284.313 199.459C287.102 196.986 288.701 195.571 288.701 195.571Z" fill="url(#paint9_linear)"/>
<path style="mix-blend-mode:multiply" opacity="0.5" d="M304.078 157.369V80.6048C305.023 48.4678 282.878 25.3138 246.732 23.9048C215.065 23.9048 189.391 49.2928 189.391 80.6048V157.369C189.391 188.687 215.065 214.076 246.732 214.076C278.399 214.076 304.078 188.687 304.078 157.369ZM258.453 72.5918V165.439C258.453 176.99 254.893 182.766 247.773 182.767C240.653 182.767 237.094 176.991 237.096 165.439V68.3518C237.132 67.2215 237.225 66.0938 237.374 64.9728C237.467 63.6852 237.821 62.4301 238.415 61.2838C238.922 60.4258 239.546 59.4635 240.286 58.3968C241.03 57.3289 242.1 56.5313 243.337 56.1238C245.923 55.3134 248.682 55.2287 251.313 55.8788C252.294 56.1225 253.199 56.6083 253.945 57.2918C254.639 57.9478 255.263 58.5811 255.818 59.1918C256.444 59.9434 256.894 60.8256 257.136 61.7738C257.458 62.8805 257.712 63.7805 257.897 64.4738C258.12 65.4223 258.26 66.3887 258.315 67.3618C258.404 68.5918 258.454 69.4708 258.454 70.0048L258.453 72.5918Z" fill="url(#paint10_linear)"/>
<path d="M304.078 157.369V80.6048C305.023 48.4678 282.878 25.3138 246.732 23.9048C215.065 23.9048 189.391 49.2928 189.391 80.6048V157.369C189.391 188.687 215.065 214.076 246.732 214.076C278.399 214.076 304.078 188.687 304.078 157.369ZM258.453 72.5918V165.439C258.453 176.99 254.893 182.766 247.773 182.767C240.653 182.767 237.094 176.991 237.096 165.439V68.3518C237.132 67.2215 237.225 66.0938 237.374 64.9728C237.467 63.6852 237.821 62.4301 238.415 61.2838C238.922 60.4258 239.546 59.4635 240.286 58.3968C241.03 57.3289 242.1 56.5313 243.337 56.1238C245.923 55.3134 248.682 55.2287 251.313 55.8788C252.294 56.1225 253.199 56.6083 253.945 57.2918C254.639 57.9478 255.263 58.5811 255.818 59.1918C256.444 59.9434 256.894 60.8256 257.136 61.7738C257.458 62.8805 257.712 63.7805 257.897 64.4738C258.12 65.4223 258.26 66.3887 258.315 67.3618C258.404 68.5918 258.454 69.4708 258.454 70.0048L258.453 72.5918Z" fill="url(#paint11_linear)"/>
<path d="M258.452 74.4975V89.9095H323.552L323.152 68.9695L309.157 69.3695C309.057 51.1495 302.615 43.2945 302.615 43.2945L315.5 37.3555C311.597 29.9025 306.018 23.4573 299.2 18.5275L291.244 28.4925C281.177 19.9355 267.182 17.7195 267.182 17.7195L269.999 4.63155C262.665 2.98057 255.162 2.20381 247.645 2.31754V16.0095C231.634 15.4095 220.671 19.5315 220.671 19.5315L216.644 6.34455C204.664 9.76855 194.494 18.7275 194.494 18.7275L195.257 22.4725L200.612 28.2595C200.236 28.6075 199.818 28.9085 199.457 29.2675C198.638 30.0765 197.913 30.9495 197.157 31.8045L208.99 89.9045H237.106V68.3515C237.142 67.2213 237.235 66.0935 237.384 64.9725C237.477 63.685 237.831 62.4298 238.425 61.2835C238.932 60.4255 239.556 59.4632 240.296 58.3965C241.04 57.3286 242.111 56.531 243.347 56.1235C245.933 55.3132 248.692 55.2284 251.323 55.8785C252.305 56.1223 253.21 56.6081 253.955 57.2915C254.649 57.9475 255.273 58.5809 255.828 59.1915C256.454 59.9432 256.905 60.8254 257.146 61.7735C257.469 62.8802 257.722 63.7802 257.907 64.4735C258.131 65.4221 258.271 66.3885 258.325 67.3615C258.414 68.5915 258.464 69.4705 258.464 70.0045V74.4895L258.452 74.4975Z" fill="url(#paint12_linear)"/>
<path style="mix-blend-mode:multiply" d="M235.967 161.132V145.72H170.873L171.273 166.66L185.273 166.26C185.373 184.481 191.815 192.335 191.815 192.335L178.93 198.274C182.835 205.728 188.417 212.173 195.237 217.103L203.19 207.137C213.257 215.692 227.252 217.908 227.252 217.908L224.435 230.995C231.769 232.646 239.272 233.423 246.789 233.31V219.617C256.899 219.882 266.983 218.472 276.632 215.444L282.22 229.944C289.468 227.798 295.736 223.185 299.939 216.903L299.178 213.158L293.824 207.37C294.199 207.023 294.616 206.721 294.978 206.363C295.796 205.553 296.521 204.68 297.278 203.826L285.445 145.726H258.452V161.138C257.325 161.218 259.74 162.079 259.74 163.72V167.285C259.74 167.939 259.647 169.065 259.462 170.664C259.278 172.264 257.862 174.12 257.351 174.982C256.84 175.844 254.875 176.173 254.135 177.24C253.39 178.307 252.32 179.104 251.084 179.512C248.498 180.322 245.739 180.407 243.108 179.757C242.126 179.513 241.221 179.028 240.475 178.344C239.781 177.688 239.157 177.054 238.602 176.444C237.976 175.692 237.526 174.81 237.285 173.862C236.962 172.756 236.708 171.856 236.522 171.162C236.299 170.213 236.16 169.246 236.105 168.273C236.016 167.044 235.966 166.165 235.966 165.63V161.145L235.967 161.132Z" fill="url(#paint13_linear)"/>
<defs>
<linearGradient id="paint0_linear" x1="467.5" y1="-0.500001" x2="341" y2="241" gradientUnits="userSpaceOnUse">
<stop stop-color="#F00804"/>
<stop offset="1" stop-color="#710200"/>
</linearGradient>
<linearGradient id="paint1_linear" x1="129.5" y1="-0.500001" x2="3" y2="241" gradientUnits="userSpaceOnUse">
<stop stop-color="#F00804"/>
<stop offset="1" stop-color="#710200"/>
</linearGradient>
<linearGradient id="paint2_linear" x1="253.698" y1="103.899" x2="187.036" y2="195.292" gradientUnits="userSpaceOnUse">
<stop stop-color="white" stop-opacity="0"/>
<stop offset="0.661" stop-color="#CCD5D7" stop-opacity="0.678"/>
<stop offset="1" stop-color="#B5C1C4"/>
</linearGradient>
<linearGradient id="paint3_linear" x1="259.133" y1="113.023" x2="340.143" y2="88.7322" gradientUnits="userSpaceOnUse">
<stop stop-color="white" stop-opacity="0"/>
<stop offset="0.661" stop-color="#CCD5D7" stop-opacity="0.678"/>
<stop offset="1" stop-color="#B5C1C4"/>
</linearGradient>
<linearGradient id="paint4_linear" x1="259.133" y1="113.023" x2="340.143" y2="88.7322" gradientUnits="userSpaceOnUse">
<stop stop-color="white" stop-opacity="0"/>
<stop offset="0.661" stop-color="#CCD5D7" stop-opacity="0.678"/>
<stop offset="1" stop-color="#B5C1C4"/>
</linearGradient>
<linearGradient id="paint5_linear" x1="277.763" y1="22.1313" x2="133.283" y2="220.013" gradientUnits="userSpaceOnUse">
<stop stop-color="white" stop-opacity="0"/>
<stop offset="0.21" stop-color="#EBEEEF" stop-opacity="0.267"/>
<stop offset="0.484" stop-color="#D4DBDC" stop-opacity="0.576"/>
<stop offset="0.716" stop-color="#C3CCCF" stop-opacity="0.808"/>
<stop offset="0.896" stop-color="#B8C4C7" stop-opacity="0.949"/>
<stop offset="1" stop-color="#B5C1C4"/>
</linearGradient>
<linearGradient id="paint6_linear" x1="237.701" y1="148.256" x2="494.516" y2="-172.312" gradientUnits="userSpaceOnUse">
<stop stop-color="white" stop-opacity="0"/>
<stop offset="0.661" stop-color="#CCD5D7" stop-opacity="0.678"/>
<stop offset="1" stop-color="#B5C1C4"/>
</linearGradient>
<linearGradient id="paint7_linear" x1="243.089" y1="120.312" x2="297.532" y2="119.304" gradientUnits="userSpaceOnUse">
<stop stop-color="white" stop-opacity="0"/>
<stop offset="0.661" stop-color="#CCD5D7" stop-opacity="0.678"/>
<stop offset="1" stop-color="#B5C1C4"/>
</linearGradient>
<linearGradient id="paint8_linear" x1="257.537" y1="104.778" x2="352.705" y2="39.729" gradientUnits="userSpaceOnUse">
<stop stop-color="white" stop-opacity="0"/>
<stop offset="0.661" stop-color="#CCD5D7" stop-opacity="0.678"/>
<stop offset="1" stop-color="#B5C1C4"/>
</linearGradient>
<linearGradient id="paint9_linear" x1="258.214" y1="139.14" x2="241.762" y2="233.296" gradientUnits="userSpaceOnUse">
<stop stop-color="white" stop-opacity="0"/>
<stop offset="0.661" stop-color="#CCD5D7" stop-opacity="0.678"/>
<stop offset="1" stop-color="#B5C1C4"/>
</linearGradient>
<linearGradient id="paint10_linear" x1="265.103" y1="72.018" x2="160.37" y2="169.1" gradientUnits="userSpaceOnUse">
<stop stop-color="white" stop-opacity="0"/>
<stop offset="0.075" stop-color="#F5F7F7" stop-opacity="0.129"/>
<stop offset="0.247" stop-color="#E2E6E7" stop-opacity="0.392"/>
<stop offset="0.417" stop-color="#D1D9DB" stop-opacity="0.608"/>
<stop offset="0.58" stop-color="#C5CED1" stop-opacity="0.78"/>
<stop offset="0.735" stop-color="#BCC7C9" stop-opacity="0.902"/>
<stop offset="0.879" stop-color="#B6C2C5" stop-opacity="0.976"/>
<stop offset="1" stop-color="#B5C1C4"/>
</linearGradient>
<linearGradient id="paint11_linear" x1="263.038" y1="70.1163" x2="374.925" y2="-52.0462" gradientUnits="userSpaceOnUse">
<stop stop-color="white" stop-opacity="0"/>
<stop offset="0.661" stop-color="#CCD5D7" stop-opacity="0.678"/>
<stop offset="1" stop-color="#B5C1C4"/>
</linearGradient>
<linearGradient id="paint12_linear" x1="267.412" y1="39.1875" x2="277.662" y2="-1.23883" gradientUnits="userSpaceOnUse">
<stop stop-color="white" stop-opacity="0"/>
<stop offset="0.661" stop-color="#CCD5D7" stop-opacity="0.678"/>
<stop offset="1" stop-color="#B5C1C4"/>
</linearGradient>
<linearGradient id="paint13_linear" x1="236.826" y1="177.431" x2="225.47" y2="244.719" gradientUnits="userSpaceOnUse">
<stop stop-color="white" stop-opacity="0"/>
<stop offset="0.661" stop-color="#CCD5D7" stop-opacity="0.678"/>
<stop offset="1" stop-color="#B5C1C4"/>
</linearGradient>
</defs>
</svg>
