<svg width="600" height="33" viewBox="0 0 600 33" fill="none" xmlns="http://www.w3.org/2000/svg">
<path d="M56.611 18.6755C55.6259 18.6755 54.8248 19.4775 54.8248 20.4626C54.8248 21.4492 55.6268 22.2512 56.611 22.2512C57.5968 22.2512 58.398 21.4492 58.398 20.4626C58.398 19.4775 57.596 18.6755 56.611 18.6755ZM56.611 23.331C55.8508 23.3297 55.1221 23.0271 54.5847 22.4893C54.0473 21.9516 53.745 21.2228 53.7441 20.4626C53.745 19.7023 54.0474 18.9735 54.5851 18.436C55.1227 17.8986 55.8516 17.5963 56.6118 17.5957C57.3719 17.5966 58.1006 17.8989 58.638 18.4363C59.1755 18.9738 59.4778 19.7025 59.4787 20.4626C59.4778 21.2229 59.1754 21.9519 58.6378 22.4896C58.1002 23.0274 57.3714 23.3299 56.611 23.331" fill="#221E1F"/>
<path d="M54.8531 18.6755L54.8248 22.2204L58.3697 22.2512C58.3859 22.2512 58.398 22.2366 58.398 22.2204V18.7047L54.8531 18.6755ZM58.3697 23.331H54.8539C54.5597 23.3308 54.2775 23.2138 54.0694 23.0057C53.8614 22.7976 53.7444 22.5155 53.7441 22.2212V18.7055C53.7441 18.0923 54.2415 17.5957 54.8539 17.5957H58.3697C58.6639 17.5959 58.9459 17.7129 59.1539 17.921C59.3618 18.1291 59.4787 18.4113 59.4787 18.7055V22.2212C59.4787 22.8336 58.9805 23.331 58.3697 23.331Z" fill="#221E1F"/>
<path d="M54.8531 27.5718L54.8248 31.1174L58.3697 31.1458C58.3859 31.1458 58.398 31.1328 58.398 31.1174V27.6001L54.8531 27.5718ZM58.3697 32.2256H54.8539C54.5599 32.2256 54.2778 32.1089 54.0698 31.9011C53.8617 31.6933 53.7446 31.4115 53.7441 31.1174V27.6001C53.7441 26.9885 54.2415 26.4911 54.8539 26.4911H58.3697C58.6639 26.4913 58.9459 26.6083 59.1539 26.8164C59.3618 27.0245 59.4787 27.3067 59.4787 27.6009V31.1174C59.4782 31.4113 59.3612 31.6931 59.1533 31.9008C58.9454 32.1086 58.6636 32.2254 58.3697 32.2256ZM65.4699 18.6755C64.4849 18.6755 63.6829 19.4775 63.6829 20.4626C63.6829 21.4492 64.4849 22.2512 65.4699 22.2512C66.4558 22.2512 67.257 21.4492 67.257 20.4626C67.257 19.4775 66.4558 18.6755 65.4699 18.6755ZM65.4699 23.331C64.7097 23.3297 63.981 23.0271 63.4436 22.4893C62.9062 21.9516 62.604 21.2228 62.6031 20.4626C62.604 19.7025 62.9063 18.9738 63.4437 18.4363C63.9812 17.8989 64.7099 17.5966 65.4699 17.5957C66.2301 17.5966 66.9589 17.8989 67.4965 18.4363C68.034 18.9737 68.3365 19.7024 68.3376 20.4626C68.3367 21.2229 68.0344 21.9519 67.4968 22.4896C66.9592 23.0274 66.2303 23.3299 65.4699 23.331" fill="#221E1F"/>
<path d="M48.158 31.6851H47.0781V27.0312H48.158V31.6851Z" fill="#221E1F"/>
<path d="M49.9449 29.8989H45.291V28.8191H49.9449V29.8989ZM66.0094 31.6851H64.9296V27.0312H66.0094V31.6851Z" fill="#221E1F"/>
<path d="M67.7974 29.8991H63.1436V28.8192H67.7974V29.8991ZM74.1063 27.5718C73.6324 27.5724 73.1782 27.7609 72.8431 28.0958C72.508 28.4308 72.3193 28.8849 72.3184 29.3588C72.3184 30.3438 73.1204 31.1458 74.1063 31.1458C75.0913 31.1458 75.8925 30.3438 75.8925 29.3588C75.8925 28.3737 75.0913 27.5718 74.1063 27.5718ZM74.1063 32.2256C73.3461 32.225 72.6172 31.9228 72.0795 31.3853C71.5419 30.8478 71.2395 30.119 71.2386 29.3588C71.2395 28.5985 71.5419 27.8696 72.0795 27.332C72.6171 26.7944 73.346 26.492 74.1063 26.4911C74.8664 26.4922 75.5951 26.7947 76.1325 27.3322C76.67 27.8698 76.9723 28.5986 76.9731 29.3588C76.9725 30.1189 76.6702 30.8477 76.1327 31.3852C75.5952 31.9227 74.8664 32.225 74.1063 32.2256V32.2256ZM82.9652 18.6755C81.9794 18.6755 81.1774 19.4775 81.1774 20.4626C81.1774 21.4492 81.9794 22.2512 82.9652 22.2512C83.9503 22.2512 84.7514 21.4492 84.7514 20.4626C84.7514 19.4775 83.9503 18.6755 82.9652 18.6755ZM82.9652 23.331C82.2049 23.3299 81.476 23.0274 80.9384 22.4896C80.4008 21.9519 80.0984 21.2229 80.0976 20.4626C80.0986 19.7024 80.4011 18.9737 80.9387 18.4363C81.4763 17.8989 82.2051 17.5966 82.9652 17.5957C83.7253 17.5966 84.454 17.8989 84.9915 18.4363C85.5289 18.9738 85.8312 19.7025 85.8321 20.4626C85.8312 21.2228 85.529 21.9516 84.9916 22.4893C84.4541 23.0271 83.7255 23.3297 82.9652 23.331V23.331ZM100.817 27.5718C99.8318 27.5718 99.0306 28.3737 99.0306 29.3588C99.0306 30.3438 99.8326 31.1458 100.817 31.1458C101.803 31.1458 102.605 30.3438 102.605 29.3588C102.604 28.8849 102.415 28.4308 102.08 28.0958C101.745 27.7609 101.291 27.5724 100.817 27.5718V27.5718ZM100.817 32.2256C100.057 32.2248 99.3282 31.9224 98.7909 31.3849C98.2536 30.8475 97.9514 30.1188 97.9508 29.3588C97.9516 28.5988 98.2538 27.8701 98.7911 27.3325C99.3283 26.795 100.057 26.4924 100.817 26.4911C101.577 26.492 102.306 26.7944 102.844 27.332C103.381 27.8696 103.684 28.5985 103.684 29.3588C103.684 30.119 103.381 30.8478 102.844 31.3853C102.306 31.9228 101.577 32.225 100.817 32.2256ZM90.2 27.5718L90.1716 31.1174L93.7165 31.1458C93.7327 31.1458 93.7457 31.1328 93.7457 31.1174V27.6001L90.2 27.5718ZM93.7165 32.2256H90.2C89.9062 32.2254 89.6244 32.1086 89.4166 31.9008C89.2089 31.693 89.092 31.4113 89.0918 31.1174V27.6001C89.0918 26.9885 89.5884 26.4911 90.2 26.4911H93.7165C94.3281 26.4911 94.8263 26.9885 94.8263 27.6009V31.1174C94.8259 31.4115 94.7088 31.6933 94.5007 31.9011C94.2926 32.1089 94.0106 32.2256 93.7165 32.2256" fill="#221E1F"/>
<path d="M126.094 18.6755L126.065 22.2204L129.61 22.2512C129.626 22.2512 129.639 22.2366 129.639 22.2204V18.7047L126.094 18.6755ZM129.61 23.331H126.094C125.8 23.331 125.518 23.2141 125.309 23.006C125.101 22.7978 124.984 22.5155 124.984 22.2212V18.7055C124.984 18.0923 125.482 17.5957 126.094 17.5957H129.61C130.222 17.5957 130.72 18.0923 130.72 18.7055V22.2212C130.72 22.5155 130.603 22.7978 130.395 23.006C130.186 23.2141 129.904 23.331 129.61 23.331V23.331ZM72.3491 18.6755L72.3191 22.2204L75.864 22.2512C75.8802 22.2512 75.8931 22.2366 75.8931 22.2204V18.7047L72.3491 18.6755ZM75.8648 23.331H72.3491C71.7374 23.331 71.2393 22.8336 71.2393 22.2212V18.7055C71.2393 18.0923 71.7374 17.5957 72.3491 17.5957H75.8648C76.4764 17.5957 76.9738 18.0923 76.9738 18.7055V22.2212C76.9738 22.5155 76.8568 22.7978 76.6487 23.006C76.4406 23.2141 76.1583 23.331 75.864 23.331H75.8648ZM100.817 18.6755C99.8324 18.6755 99.0312 19.4775 99.0312 20.4626C99.0312 21.4492 99.8332 22.2512 100.817 22.2512C101.804 22.2512 102.605 21.4492 102.605 20.4626C102.605 19.4775 101.803 18.6755 100.817 18.6755ZM100.817 23.331C100.057 23.3295 99.3289 23.0267 98.7916 22.489C98.2544 21.9514 97.9523 21.2226 97.9514 20.4626C97.9523 19.7026 98.2545 18.974 98.7917 18.4366C99.329 17.8992 100.058 17.5968 100.817 17.5957C101.578 17.5966 102.306 17.8989 102.844 18.4363C103.382 18.9737 103.684 19.7024 103.685 20.4626C103.684 21.2229 103.382 21.9519 102.844 22.4896C102.307 23.0274 101.578 23.3299 100.817 23.331V23.331ZM92.4988 22.7907H91.419V18.136H92.4988V22.7907Z" fill="#221E1F"/>
<path d="M85.2916 29.8991H80.6377V28.8192H85.2916V29.8991ZM118.858 18.6755C117.872 18.6755 117.07 19.4775 117.07 20.4626C117.07 21.4492 117.872 22.2512 118.858 22.2512C119.843 22.2512 120.644 21.4492 120.644 20.4626C120.644 19.4775 119.843 18.6755 118.858 18.6755ZM118.858 23.331C118.097 23.3299 117.368 23.0274 116.831 22.4896C116.293 21.9519 115.991 21.2229 115.99 20.4626C115.991 19.7024 116.294 18.9737 116.831 18.4363C117.369 17.8989 118.098 17.5966 118.858 17.5957C119.618 17.5966 120.347 17.8989 120.884 18.4363C121.421 18.9738 121.724 19.7025 121.725 20.4626C121.724 21.2228 121.421 21.9516 120.884 22.4893C120.347 23.0271 119.618 23.3297 118.858 23.331V23.331ZM126.093 27.5718L126.064 31.1174L129.609 31.1458C129.625 31.1458 129.638 31.1328 129.638 31.1174V27.6001L126.093 27.5718ZM129.609 32.2256H126.093C125.799 32.2256 125.517 32.1089 125.309 31.9011C125.101 31.6933 124.984 31.4115 124.984 31.1174V27.6001C124.984 26.9885 125.481 26.4911 126.093 26.4911H129.609C130.221 26.4911 130.719 26.9885 130.719 27.6009V31.1174C130.718 31.4115 130.601 31.6933 130.393 31.9011C130.185 32.1089 129.903 32.2256 129.609 32.2256V32.2256ZM136.709 18.6755C135.724 18.6755 134.923 19.4775 134.923 20.4626C134.923 21.4492 135.725 22.2512 136.709 22.2512C137.183 22.2506 137.638 22.0619 137.973 21.7265C138.308 21.3912 138.497 20.9367 138.497 20.4626C138.496 19.9887 138.308 19.5346 137.973 19.1996C137.637 18.8646 137.183 18.6762 136.709 18.6755V18.6755ZM136.709 23.331C135.949 23.3295 135.221 23.0267 134.684 22.489C134.146 21.9514 133.844 21.2226 133.843 20.4626C133.844 19.7026 134.146 18.974 134.684 18.4366C135.221 17.8992 135.949 17.5968 136.709 17.5957C137.469 17.5966 138.198 17.8989 138.736 18.4363C139.273 18.9737 139.576 19.7024 139.577 20.4626C139.576 21.2229 139.274 21.9519 138.736 22.4896C138.199 23.0274 137.47 23.3299 136.709 23.331V23.331ZM110.539 22.7907H109.458V18.136H110.539V22.7907Z" fill="#221E1F"/>
<path d="M112.325 21.003H107.672V19.9224H112.325V21.0022V21.003ZM137.249 31.6854H136.169V27.0315H137.249V31.6854Z" fill="#221E1F"/>
<path d="M139.038 29.8991H134.384V28.8192H139.038V29.8991ZM145.346 27.5718C144.361 27.5718 143.559 28.3737 143.559 29.3588C143.559 30.3438 144.361 31.1458 145.346 31.1458C146.332 31.1458 147.134 30.3438 147.134 29.3588C147.133 28.8849 146.944 28.4308 146.609 28.0958C146.274 27.7609 145.82 27.5724 145.346 27.5718V27.5718ZM145.346 32.2256C144.586 32.2248 143.857 31.9224 143.32 31.3849C142.782 30.8475 142.48 30.1188 142.48 29.3588C142.481 28.5988 142.783 27.8701 143.32 27.3325C143.857 26.795 144.586 26.4924 145.346 26.4911C146.106 26.492 146.835 26.7944 147.372 27.332C147.91 27.8696 148.212 28.5985 148.213 29.3588C148.212 30.119 147.91 30.8478 147.372 31.3853C146.835 31.9228 146.106 32.225 145.346 32.2256V32.2256ZM154.205 18.6755C153.22 18.6755 152.418 19.4775 152.418 20.4626C152.418 21.4492 153.22 22.2512 154.205 22.2512C155.191 22.2512 155.992 21.4492 155.992 20.4626C155.992 19.4775 155.191 18.6755 154.205 18.6755ZM154.205 23.331C153.445 23.3295 152.716 23.0267 152.179 22.489C151.642 21.9514 151.339 21.2226 151.339 20.4626C151.339 19.7026 151.642 18.974 152.179 18.4366C152.716 17.8992 153.445 17.5968 154.205 17.5957C154.965 17.5966 155.694 17.8989 156.231 18.4363C156.769 18.9737 157.071 19.7024 157.072 20.4626C157.071 21.2229 156.769 21.9519 156.232 22.4896C155.694 23.0274 154.965 23.3299 154.205 23.331V23.331ZM172.058 27.5718C171.584 27.5724 171.13 27.7609 170.795 28.0958C170.46 28.4308 170.271 28.8849 170.27 29.3588C170.27 30.3438 171.072 31.1458 172.058 31.1458C173.043 31.1458 173.844 30.3438 173.844 29.3588C173.844 28.3737 173.043 27.5718 172.058 27.5718ZM172.058 32.2256C171.298 32.225 170.569 31.9228 170.031 31.3853C169.493 30.8478 169.191 30.119 169.19 29.3588C169.191 28.5985 169.493 27.8696 170.031 27.332C170.569 26.7944 171.298 26.492 172.058 26.4911C172.818 26.4922 173.547 26.7947 174.084 27.3322C174.622 27.8698 174.924 28.5986 174.925 29.3588C174.924 30.1189 174.622 30.8477 174.084 31.3852C173.547 31.9227 172.818 32.225 172.058 32.2256V32.2256ZM161.441 27.5718L161.413 31.1174L164.958 31.1458C164.974 31.1458 164.987 31.1328 164.987 31.1174V27.6001L161.441 27.5718ZM164.957 32.2256H161.441C161.147 32.2256 160.865 32.1089 160.657 31.9011C160.449 31.6933 160.332 31.4114 160.332 31.1174V27.6001C160.332 26.9885 160.829 26.4911 161.44 26.4911H164.958C165.568 26.4911 166.067 26.9885 166.067 27.6009V31.1174C166.066 31.4115 165.949 31.6933 165.741 31.9011C165.533 32.1089 165.251 32.2256 164.957 32.2256" fill="#221E1F"/>
<path d="M170.298 27.5718L170.269 31.1174L173.815 31.1458C173.831 31.1458 173.843 31.1328 173.843 31.1174V27.6001L170.298 27.5718ZM173.815 32.2256H170.298C170.004 32.2254 169.722 32.1086 169.514 31.9008C169.306 31.6931 169.189 31.4113 169.189 31.1174V27.6001C169.189 26.9885 169.687 26.4911 170.299 26.4911H173.814C174.109 26.4913 174.391 26.6083 174.599 26.8164C174.807 27.0245 174.923 27.3067 174.923 27.6009V31.1174C174.923 31.729 174.426 32.2256 173.815 32.2256ZM143.587 18.6755L143.558 22.2204L147.103 22.2512C147.119 22.2512 147.132 22.2366 147.132 22.2204V18.7047L143.587 18.6755ZM147.103 23.331H143.587C142.976 23.331 142.478 22.8336 142.478 22.2212V18.7055C142.478 18.0923 142.976 17.5957 143.587 17.5957H147.103C147.715 17.5957 148.213 18.0923 148.213 18.7055V22.2212C148.213 22.8336 147.715 23.331 147.103 23.331ZM154.744 31.6853H153.664V27.0314H154.744V31.6853Z" fill="#221E1F"/>
<path d="M156.531 29.8991H151.877V28.8192H156.532V29.8991H156.531ZM179.496 27.5718L179.451 31.1012L182.981 31.1458C183.006 31.1458 183.025 31.1263 183.025 31.1012V27.6171L179.496 27.5718ZM182.981 32.2256H179.496C179.198 32.2252 178.912 32.1066 178.701 31.8958C178.49 31.685 178.372 31.3993 178.371 31.1012V27.6171C178.371 26.9958 178.875 26.4911 179.496 26.4911H182.981C183.279 26.4915 183.565 26.6104 183.776 26.8215C183.986 27.0326 184.105 27.3188 184.105 27.6171V31.1004C184.105 31.3986 183.986 31.6846 183.775 31.8955C183.565 32.1065 183.279 32.2252 182.981 32.2256V32.2256ZM190.098 18.6755C189.111 18.6755 188.31 19.4775 188.31 20.4626C188.31 21.4492 189.112 22.2512 190.098 22.2512C191.083 22.2512 191.884 21.4492 191.884 20.4626C191.884 19.4775 191.082 18.6755 190.098 18.6755ZM190.098 23.331C189.337 23.3299 188.609 23.0274 188.071 22.4896C187.533 21.9519 187.231 21.2229 187.23 20.4626C187.231 19.7024 187.534 18.9737 188.071 18.4363C188.609 17.8989 189.338 17.5966 190.098 17.5957C190.858 17.5968 191.586 17.8992 192.124 18.4366C192.661 18.974 192.963 19.7026 192.964 20.4626C192.963 21.2226 192.661 21.9514 192.124 22.489C191.586 23.0267 190.858 23.3295 190.098 23.331V23.331ZM197.332 27.5718L197.303 31.1174L200.849 31.1458C200.865 31.1458 200.878 31.1328 200.878 31.1174V27.6001L197.332 27.5718ZM200.849 32.2256H197.332C197.038 32.2254 196.756 32.1086 196.548 31.9008C196.34 31.6931 196.223 31.4113 196.223 31.1174V27.6001C196.223 26.9885 196.721 26.4911 197.333 26.4911H200.848C201.46 26.4911 201.958 26.9885 201.958 27.6009V31.1174C201.958 31.4115 201.841 31.6933 201.632 31.9011C201.424 32.1089 201.142 32.2256 200.848 32.2256H200.849ZM181.778 22.7907H180.698V18.136H181.778V22.7907Z" fill="#221E1F"/>
<path d="M183.566 21.003H178.911V19.9224H183.566V21.0022V21.003ZM190.638 31.6854H189.558V27.0315H190.638V31.6854Z" fill="#221E1F"/>
<path d="M192.424 29.8989H187.77V28.8191H192.424V29.8989ZM208.489 31.6851H207.409V27.0312H208.49V31.6851" fill="#221E1F"/>
<path d="M210.276 29.8992H205.623V28.8193H210.276V29.8992" fill="#221E1F"/>
<path d="M54.8531 1.35864L54.8248 4.90353L58.3697 4.93267C58.3859 4.93267 58.398 4.91973 58.398 4.90353V1.387L54.8531 1.35864ZM58.3697 6.01251H54.8539C54.5596 6.01251 54.2773 5.8956 54.0692 5.68747C53.8611 5.47934 53.7441 5.19705 53.7441 4.90271V1.387C53.7446 1.09294 53.8617 0.81108 54.0698 0.603302C54.2778 0.395525 54.5599 0.278808 54.8539 0.278809H58.3697C58.6636 0.279023 58.9454 0.39582 59.1533 0.603574C59.3612 0.811329 59.4782 1.09308 59.4787 1.387V4.90271C59.4787 5.19691 59.3618 5.47907 59.1539 5.68717C58.9459 5.89528 58.6639 6.01229 58.3697 6.01251Z" fill="#221E1F"/>
<path d="M47.6178 1.35864C46.6328 1.35864 45.8316 2.1606 45.8316 3.14484C45.8323 3.61853 46.0206 4.07266 46.3554 4.40776C46.6902 4.74286 47.1441 4.9316 47.6178 4.93267C48.0916 4.93182 48.5458 4.74315 48.8808 4.40803C49.2157 4.07291 49.4042 3.61867 49.4048 3.14484C49.4048 2.15979 48.6029 1.35864 47.6178 1.35864ZM47.6178 6.01251C46.8577 6.01143 46.129 5.70894 45.5916 5.17136C45.0541 4.63378 44.7518 3.90499 44.751 3.14484C44.7518 2.3847 45.0543 1.65599 45.5919 1.11865C46.1296 0.581299 46.8585 0.279237 47.6186 0.278809C48.3785 0.279666 49.107 0.581914 49.6443 1.11921C50.1816 1.65652 50.4838 2.38498 50.4847 3.14484C50.4838 3.90499 50.1815 4.63378 49.6441 5.17136C49.1067 5.70894 48.378 6.01143 47.6178 6.01251V6.01251ZM54.8534 10.2532L54.825 13.7989L58.3699 13.8281C58.3861 13.8281 58.3983 13.8143 58.3983 13.7989V10.2832L54.8534 10.2532ZM58.3699 14.9087H54.8542C54.5599 14.9087 54.2776 14.7918 54.0695 14.5837C53.8613 14.3756 53.7444 14.0933 53.7444 13.7989V10.2832C53.7444 9.6708 54.2418 9.17342 54.8542 9.17342H58.3699C58.9807 9.17342 59.4789 9.6708 59.4789 10.2832V13.7989C59.4789 14.0931 59.3621 14.3753 59.1541 14.5834C58.9462 14.7915 58.6641 14.9085 58.3699 14.9087ZM65.4702 1.35864C64.4852 1.35864 63.6832 2.1606 63.6832 3.14484C63.6832 4.1307 64.4852 4.93267 65.4702 4.93267C65.944 4.93182 66.3982 4.74315 66.7332 4.40803C67.0681 4.07291 67.2566 3.61867 67.2572 3.14484C67.2572 2.15979 66.4561 1.35864 65.4702 1.35864ZM65.4702 6.01251C64.7101 6.01143 63.9814 5.70894 63.4439 5.17136C62.9065 4.63378 62.6042 3.90499 62.6034 3.14484C62.6042 2.38484 62.9066 1.65624 63.444 1.11892C63.9815 0.581594 64.7102 0.279452 65.4702 0.278809C66.2303 0.279451 66.9591 0.581568 67.4967 1.11887C68.0343 1.65617 68.3368 2.38477 68.3379 3.14484C68.337 3.90513 68.0346 4.63405 67.497 5.17166C66.9594 5.70926 66.2305 6.01165 65.4702 6.01251" fill="#221E1F"/>
<path d="M48.158 14.3684H47.0781V9.71289H48.158V14.3684Z" fill="#221E1F"/>
<path d="M49.9449 12.5822H45.291V11.5024H49.9449V12.5822ZM66.0094 14.3684H64.9296V9.71289H66.0094V14.3684Z" fill="#221E1F"/>
<path d="M67.7974 12.5822H63.1436V11.5024H67.7974V12.5822ZM74.1063 10.2532C73.6322 10.2539 73.1777 10.4426 72.8425 10.7779C72.5073 11.1132 72.3189 11.5678 72.3184 12.0419C72.3184 13.0269 73.1204 13.8281 74.1063 13.8281C74.5689 13.811 75.0069 13.6152 75.3282 13.2819C75.6495 12.9486 75.829 12.5036 75.829 12.0407C75.829 11.5777 75.6495 11.1328 75.3282 10.7994C75.0069 10.4661 74.5689 10.2703 74.1063 10.2532V10.2532ZM74.1063 14.9087C73.3461 14.9079 72.6174 14.6056 72.0798 14.0681C71.5422 13.5307 71.2397 12.802 71.2386 12.0419C71.2395 11.2815 71.5419 10.5525 72.0794 10.0148C72.617 9.47708 73.3459 9.17449 74.1063 9.17342C75.6859 9.17342 76.9731 10.4614 76.9731 12.0419C76.9723 12.8019 76.6699 13.5306 76.1325 14.0681C75.595 14.6055 74.8663 14.9079 74.1063 14.9087V14.9087ZM82.9652 1.35864C81.9794 1.35864 81.1774 2.1606 81.1774 3.14484C81.178 3.61881 81.3666 4.07319 81.7018 4.40833C82.0369 4.74347 82.4913 4.93203 82.9652 4.93267C83.9503 4.93267 84.7514 4.1307 84.7514 3.14484C84.7514 2.15979 83.9503 1.35864 82.9652 1.35864ZM82.9652 6.01251C82.2049 6.01165 81.476 5.70926 80.9384 5.17166C80.4008 4.63405 80.0984 3.90513 80.0976 3.14484C80.0986 2.38477 80.4012 1.65617 80.9388 1.11887C81.4764 0.581568 82.2052 0.279451 82.9652 0.278809C83.7252 0.279452 84.4539 0.581594 84.9914 1.11892C85.5289 1.65624 85.8312 2.38484 85.8321 3.14484C85.8312 3.90499 85.5289 4.63378 84.9915 5.17136C84.4541 5.70894 83.7254 6.01143 82.9652 6.01251ZM100.817 10.2532C100.352 10.2672 99.9108 10.4617 99.587 10.7955C99.2631 11.1292 99.082 11.576 99.082 12.0411C99.082 12.5061 99.2631 12.9529 99.587 13.2866C99.9108 13.6204 100.352 13.8149 100.817 13.8289C101.803 13.8289 102.605 13.0269 102.605 12.0419C102.604 11.5678 102.416 11.1132 102.081 10.7779C101.745 10.4426 101.291 10.2539 100.817 10.2532V10.2532ZM100.817 14.9087C100.057 14.9076 99.3284 14.6052 98.7911 14.0678C98.2538 13.5304 97.9516 12.8018 97.9508 12.0419C97.9516 11.2818 98.2538 10.5531 98.791 10.0154C99.3282 9.47769 100.057 9.17492 100.817 9.17342C102.398 9.17342 103.684 10.4614 103.684 12.0419C103.683 12.802 103.381 13.5307 102.843 14.0681C102.306 14.6056 101.577 14.9079 100.817 14.9087V14.9087ZM90.2 10.2532L90.1716 13.7989L93.7165 13.8281C93.7241 13.8277 93.7313 13.8245 93.7367 13.8191C93.7421 13.8137 93.7453 13.8065 93.7457 13.7989V10.2832L90.2 10.2532ZM93.7165 14.9087H90.2C89.9059 14.9083 89.6241 14.7912 89.4163 14.5831C89.2085 14.375 89.0918 14.093 89.0918 13.7989V10.2832C89.0918 9.6708 89.5884 9.17342 90.2 9.17342H93.7165C94.3281 9.17342 94.8263 9.6708 94.8263 10.2832V13.7989C94.8263 14.4105 94.3281 14.9087 93.7165 14.9087Z" fill="#221E1F"/>
<path d="M99.0584 10.2532L99.03 13.7989L102.575 13.8281C102.591 13.8281 102.604 13.8143 102.604 13.7989V10.2832L99.0584 10.2532ZM102.575 14.9087H99.0584C98.7643 14.9083 98.4825 14.7912 98.2747 14.5831C98.0669 14.375 97.9502 14.093 97.9502 13.7989V10.2832C97.9502 9.6708 98.4468 9.17342 99.0584 9.17342H102.575C103.187 9.17342 103.685 9.6708 103.685 10.2832V13.7989C103.685 14.4105 103.187 14.9087 102.575 14.9087ZM127.85 1.35864C126.865 1.35864 126.064 2.1606 126.064 3.14484C126.064 4.1307 126.866 4.93267 127.85 4.93267C128.324 4.93203 128.778 4.74347 129.113 4.40833C129.449 4.07319 129.637 3.61881 129.638 3.14484C129.638 2.15979 128.836 1.35864 127.85 1.35864ZM127.85 6.01251C127.09 6.01122 126.361 5.70864 125.824 5.17109C125.287 4.63353 124.985 3.90485 124.984 3.14484C124.985 2.38498 125.287 1.65652 125.824 1.11921C126.362 0.581914 127.09 0.279666 127.85 0.278809C128.61 0.279451 129.339 0.581568 129.876 1.11887C130.414 1.65617 130.717 2.38477 130.718 3.14484C130.717 3.90513 130.414 4.63405 129.877 5.17166C129.339 5.70926 128.61 6.01165 127.85 6.01251" fill="#221E1F"/>
<path d="M126.094 1.35864L126.065 4.90353L129.61 4.93267C129.626 4.93267 129.639 4.91973 129.639 4.90353V1.387L126.094 1.35864ZM129.61 6.01251H126.094C125.8 6.01251 125.518 5.8956 125.309 5.68747C125.101 5.47934 124.984 5.19705 124.984 4.90271V1.387C124.984 0.775393 125.482 0.278809 126.094 0.278809H129.61C130.222 0.278809 130.72 0.775393 130.72 1.387V4.90271C130.72 5.19705 130.603 5.47934 130.395 5.68747C130.186 5.8956 129.904 6.01251 129.61 6.01251V6.01251ZM72.3491 1.35864L72.3191 4.90353L75.864 4.93267C75.8678 4.93279 75.8717 4.93212 75.8752 4.9307C75.8788 4.92927 75.8821 4.92712 75.8848 4.92439C75.8876 4.92166 75.8897 4.91841 75.8911 4.91482C75.8926 4.91124 75.8932 4.90739 75.8931 4.90353V1.387L72.3491 1.35864ZM75.8648 6.01251H72.3491C72.0547 6.01251 71.7724 5.8956 71.5643 5.68747C71.3562 5.47934 71.2393 5.19705 71.2393 4.90271V1.387C71.2397 1.09294 71.3568 0.81108 71.5649 0.603302C71.773 0.395525 72.055 0.278808 72.3491 0.278809H75.8648C76.4764 0.278809 76.9738 0.775393 76.9738 1.387V4.90271C76.9738 5.19705 76.8568 5.47934 76.6487 5.68747C76.4406 5.8956 76.1583 6.01251 75.864 6.01251H75.8648ZM100.817 1.35864C99.8324 1.35864 99.0312 2.1606 99.0312 3.14484C99.0312 4.1307 99.8332 4.93267 100.817 4.93267C101.291 4.93203 101.746 4.74347 102.081 4.40833C102.416 4.07319 102.605 3.61881 102.605 3.14484C102.605 2.15979 101.803 1.35864 100.817 1.35864ZM100.817 6.01251C100.057 6.01122 99.3289 5.70864 98.7917 5.17109C98.2544 4.63353 97.9523 3.90485 97.9514 3.14484C97.9523 2.38498 98.2545 1.65652 98.7918 1.11921C99.3291 0.581914 100.058 0.279666 100.817 0.278809C101.578 0.279451 102.306 0.581568 102.844 1.11887C103.382 1.65617 103.684 2.38477 103.685 3.14484C103.684 3.90513 103.382 4.63405 102.844 5.17166C102.307 5.70926 101.578 6.01165 100.817 6.01251V6.01251ZM92.4988 5.47301H91.419V0.819146H92.4988V5.47301Z" fill="#221E1F"/>
<path d="M94.2857 3.68518H89.6318V2.60535H94.2865V3.68518H94.2857ZM108.256 10.2532L108.213 13.7843L111.743 13.8281C111.767 13.8281 111.786 13.8078 111.786 13.7843V10.2978L108.256 10.2532ZM111.743 14.9087H108.256C107.958 14.9083 107.673 14.7897 107.462 14.5789C107.251 14.3681 107.133 14.0823 107.133 13.7843V10.2978C107.133 9.67728 107.637 9.17342 108.256 9.17342H111.743C112.041 9.17406 112.326 9.29275 112.537 9.5035C112.747 9.71424 112.866 9.99987 112.866 10.2978V13.7843C112.866 14.0823 112.747 14.3679 112.537 14.5786C112.326 14.7894 112.041 14.9081 111.743 14.9087ZM118.858 1.35864C117.873 1.35864 117.071 2.1606 117.071 3.14484C117.071 3.61881 117.26 4.07319 117.595 4.40833C117.93 4.74347 118.384 4.93203 118.858 4.93267C119.843 4.93267 120.645 4.1307 120.645 3.14484C120.645 2.15979 119.843 1.35864 118.858 1.35864ZM118.858 6.01251C118.098 6.01165 117.369 5.70926 116.832 5.17166C116.294 4.63405 115.992 3.90513 115.991 3.14484C115.992 2.38477 116.294 1.65617 116.832 1.11887C117.37 0.581568 118.098 0.279451 118.858 0.278809C119.618 0.279452 120.347 0.581594 120.885 1.11892C121.422 1.65624 121.724 2.38484 121.725 3.14484C121.724 3.90499 121.422 4.63378 120.885 5.17136C120.347 5.70894 119.619 6.01143 118.858 6.01251V6.01251ZM126.094 10.2532L126.065 13.7989L129.61 13.8281C129.626 13.8281 129.639 13.8143 129.639 13.7989V10.2832L126.094 10.2532ZM129.61 14.9087H126.094C125.8 14.9087 125.517 14.7918 125.309 14.5837C125.101 14.3756 124.984 14.0933 124.984 13.7989V10.2832C124.984 9.6708 125.482 9.17342 126.094 9.17342H129.61C130.222 9.17342 130.72 9.6708 130.72 10.2832V13.7989C130.72 14.0933 130.603 14.3756 130.394 14.5837C130.186 14.7918 129.904 14.9087 129.61 14.9087V14.9087ZM136.71 1.35864C135.725 1.35864 134.924 2.1606 134.924 3.14484C134.924 4.1307 135.726 4.93267 136.71 4.93267C137.184 4.93203 137.638 4.74347 137.974 4.40833C138.309 4.07319 138.497 3.61881 138.498 3.14484C138.498 2.15979 137.696 1.35864 136.71 1.35864ZM136.71 6.01251C135.95 6.01122 135.222 5.70864 134.684 5.17109C134.147 4.63353 133.845 3.90485 133.844 3.14484C133.845 2.38498 134.147 1.65652 134.684 1.11921C135.222 0.581914 135.95 0.279666 136.71 0.278809C137.47 0.279451 138.199 0.581568 138.736 1.11887C139.274 1.65617 139.577 2.38477 139.578 3.14484C139.577 3.90513 139.274 4.63405 138.737 5.17166C138.199 5.70926 137.47 6.01165 136.71 6.01251V6.01251ZM110.54 5.47301H109.459V0.819146H110.54V5.47301Z" fill="#221E1F"/>
<path d="M112.325 3.6853H107.672V2.60547H112.325V3.6853ZM119.397 14.3685H118.317V9.71304H119.398V14.3685" fill="#221E1F"/>
<path d="M121.185 12.5822H116.531V11.5024H121.185V12.5822ZM137.25 14.3684H136.171V9.71289H137.25V14.3684Z" fill="#221E1F"/>
<path d="M139.038 12.5821H134.384V11.5023H139.038V12.5821ZM145.346 10.2532C144.881 10.2672 144.44 10.4617 144.116 10.7954C143.792 11.1292 143.611 11.5759 143.611 12.041C143.611 12.5061 143.792 12.9528 144.116 13.2866C144.44 13.6203 144.881 13.8148 145.346 13.8288C146.332 13.8288 147.134 13.0268 147.134 12.0418C147.133 11.5677 146.945 11.1131 146.609 10.7778C146.274 10.4425 145.82 10.2538 145.346 10.2532V10.2532ZM145.346 14.9086C144.586 14.9076 143.857 14.6052 143.32 14.0677C142.783 13.5303 142.481 12.8017 142.48 12.0418C142.481 11.2817 142.783 10.553 143.32 10.0153C143.857 9.47762 144.586 9.17484 145.346 9.17334C146.927 9.17334 148.213 10.4613 148.213 12.0418C148.212 12.8019 147.91 13.5306 147.372 14.0681C146.835 14.6055 146.106 14.9078 145.346 14.9086V14.9086ZM172.058 10.2532C171.584 10.2538 171.129 10.4425 170.794 10.7778C170.459 11.1131 170.27 11.5677 170.27 12.0418C170.27 13.0268 171.072 13.828 172.058 13.828C172.52 13.811 172.959 13.6152 173.28 13.2818C173.601 12.9485 173.781 12.5035 173.781 12.0406C173.781 11.5776 173.601 11.1327 173.28 10.7993C172.959 10.466 172.52 10.2702 172.058 10.2532ZM172.058 14.9086C171.298 14.9078 170.569 14.6055 170.031 14.0681C169.494 13.5306 169.191 12.8019 169.19 12.0418C169.191 11.2814 169.493 10.5525 170.031 10.0147C170.569 9.477 171.297 9.17441 172.058 9.17334C173.637 9.17334 174.925 10.4613 174.925 12.0418C174.924 12.8019 174.622 13.5306 174.084 14.068C173.547 14.6055 172.818 14.9078 172.058 14.9086ZM161.441 10.2532L161.413 13.7988L164.958 13.828C164.965 13.8276 164.972 13.8244 164.978 13.819C164.983 13.8137 164.986 13.8065 164.987 13.7988V10.2831L161.441 10.2532ZM164.957 14.9086H161.441C161.147 14.9084 160.865 14.7914 160.657 14.5833C160.449 14.3752 160.332 14.093 160.332 13.7988V10.2831C160.332 9.67072 160.829 9.17334 161.44 9.17334H164.958C165.568 9.17334 166.067 9.67072 166.067 10.2831V13.7988C166.067 14.4105 165.568 14.9086 164.957 14.9086" fill="#221E1F"/>
<path d="M170.298 10.2532L170.269 13.7989L173.815 13.8281C173.83 13.8281 173.843 13.8143 173.843 13.7989V10.2832L170.298 10.2532ZM173.815 14.9087H170.298C169.687 14.9087 169.189 14.4105 169.189 13.7989V10.2832C169.189 9.6708 169.687 9.17342 170.299 9.17342H173.814C174.109 9.17363 174.391 9.29065 174.599 9.49875C174.807 9.70686 174.923 9.98902 174.923 10.2832V13.7989C174.923 14.093 174.807 14.375 174.599 14.5831C174.391 14.7912 174.109 14.9083 173.815 14.9087ZM172.056 1.35864C171.071 1.35864 170.269 2.1606 170.269 3.14484C170.269 3.61881 170.458 4.07319 170.793 4.40833C171.128 4.74347 171.583 4.93203 172.056 4.93267C173.042 4.93267 173.843 4.1307 173.843 3.14484C173.843 2.15979 173.042 1.35864 172.056 1.35864ZM172.056 6.01251C171.296 6.01165 170.567 5.70926 170.03 5.17166C169.492 4.63405 169.19 3.90513 169.189 3.14484C169.19 2.38477 169.492 1.65617 170.03 1.11887C170.568 0.581568 171.296 0.279451 172.056 0.278809C172.816 0.279452 173.545 0.581594 174.083 1.11892C174.62 1.65624 174.922 2.38484 174.923 3.14484C174.922 3.90499 174.62 4.63378 174.083 5.17136C173.545 5.70894 172.817 6.01143 172.056 6.01251ZM163.738 5.47301H162.657V0.819146H163.738V5.47301Z" fill="#221E1F"/>
<path d="M165.525 3.6853H160.871V2.60547H165.525V3.6853ZM154.744 14.3685H153.664V9.71304H154.744V14.3685Z" fill="#221E1F"/>
<path d="M156.531 12.5821H151.877V11.5023H156.532V12.5821H156.531ZM179.496 10.2532L179.451 13.7843L182.981 13.828C183.006 13.828 183.025 13.8078 183.025 13.7843V10.2977L179.496 10.2532ZM182.981 14.9086H179.496C179.198 14.9082 178.912 14.7896 178.701 14.5789C178.49 14.3681 178.372 14.0823 178.371 13.7843V10.2977C178.372 9.99965 178.49 9.71389 178.701 9.50312C178.912 9.29235 179.198 9.17377 179.496 9.17334H182.981C183.279 9.17377 183.564 9.29235 183.775 9.50312C183.986 9.71389 184.104 9.99965 184.105 10.2977V13.7843C184.104 14.0823 183.986 14.3681 183.775 14.5789C183.564 14.7896 183.279 14.9082 182.981 14.9086V14.9086ZM190.637 14.3683H189.557V9.71284H190.637V14.3683Z" fill="#221E1F"/>
<path d="M192.424 12.5823H187.77V11.5024H192.424V12.5823ZM561.238 27.294C560.253 27.294 559.452 28.096 559.452 29.081C559.452 30.0653 560.253 30.8672 561.238 30.8672C561.712 30.8666 562.166 30.6783 562.501 30.3435C562.836 30.0087 563.025 29.5547 563.026 29.081C563.025 28.6072 562.837 28.153 562.501 27.8181C562.166 27.4831 561.712 27.2946 561.238 27.294ZM561.238 31.9471C560.478 31.9464 559.749 31.6443 559.212 31.107C558.675 30.5696 558.372 29.841 558.371 29.081C558.372 28.3208 558.674 27.5917 559.211 27.054C559.749 26.5164 560.478 26.214 561.238 26.2134C561.999 26.214 562.728 26.5163 563.265 27.054C563.803 27.5916 564.105 28.3207 564.106 29.081C564.105 29.8411 563.802 30.5697 563.265 31.107C562.727 31.6443 561.998 31.9464 561.238 31.9471Z" fill="#221E1F"/>
<path d="M559.48 27.294L559.453 30.8389L562.998 30.8672C563.014 30.8672 563.027 30.8551 563.027 30.8389V27.3224L559.48 27.294ZM562.998 31.9471H559.48C559.187 31.9466 558.905 31.8297 558.697 31.622C558.489 31.4143 558.372 31.1327 558.372 30.8389V27.3224C558.372 27.0284 558.489 26.7466 558.697 26.5387C558.905 26.3308 559.186 26.2138 559.48 26.2134H562.998C563.61 26.2134 564.107 26.7108 564.107 27.3224V30.8381C564.107 31.1324 563.99 31.4147 563.782 31.6228C563.573 31.831 563.291 31.9479 562.997 31.9479" fill="#221E1F"/>
<path d="M568.677 27.2937L568.633 30.8224L572.164 30.867C572.187 30.867 572.207 30.8475 572.207 30.8224V27.3383L568.677 27.2937ZM572.164 31.9468H568.677C568.379 31.9464 568.093 31.8278 567.883 31.617C567.672 31.4062 567.553 31.1205 567.553 30.8224V27.3383C567.553 26.717 568.057 26.2131 568.677 26.2131H572.164C572.783 26.2131 573.288 26.717 573.288 27.3383V30.8224C573.288 31.1205 573.169 31.4062 572.958 31.617C572.747 31.8278 572.462 31.9464 572.164 31.9468ZM579.278 18.3975C578.293 18.3975 577.492 19.1995 577.492 20.1845C577.492 21.1696 578.293 21.9708 579.278 21.9708C580.264 21.9708 581.066 21.1696 581.066 20.1845C581.065 19.7107 580.876 19.2566 580.541 18.9216C580.206 18.5866 579.752 18.3982 579.278 18.3975V18.3975ZM579.278 23.0514C578.518 23.0503 577.789 22.7478 577.252 22.2102C576.714 21.6726 576.412 20.9438 576.412 20.1837C576.413 19.4239 576.715 18.6954 577.252 18.158C577.789 17.6207 578.518 17.3182 579.278 17.3169C580.038 17.3178 580.767 17.6201 581.304 18.1577C581.842 18.6953 582.145 19.4242 582.145 20.1845C582.145 20.9447 581.842 21.6736 581.304 22.2111C580.767 22.7485 580.038 23.0507 579.278 23.0514V23.0514ZM597.131 18.3975C596.657 18.3982 596.203 18.5866 595.868 18.9216C595.533 19.2566 595.344 19.7107 595.343 20.1845C595.344 20.6582 595.533 21.1122 595.868 21.447C596.203 21.7818 596.657 21.9701 597.131 21.9708C598.117 21.9708 598.919 21.1696 598.919 20.1845C598.918 19.7107 598.729 19.2566 598.394 18.9216C598.059 18.5866 597.605 18.3982 597.131 18.3975ZM597.131 23.0514C596.371 23.0507 595.642 22.7484 595.104 22.2108C594.566 21.6731 594.264 20.9441 594.263 20.1837C594.264 19.4236 594.567 18.6949 595.104 18.1575C595.642 17.62 596.371 17.3178 597.131 17.3169C597.891 17.3178 598.62 17.6201 599.158 18.1577C599.695 18.6953 599.998 19.4242 599.999 20.1845C599.998 20.9447 599.695 21.6736 599.158 22.2111C598.62 22.7485 597.891 23.0507 597.131 23.0514" fill="#221E1F"/>
<path d="M579.818 14.0899H578.738V9.43604H579.818V14.0899Z" fill="#221E1F"/>
<path d="M581.607 12.3028H576.952V11.2222H581.607V12.3028Z" fill="#221E1F"/>
<path d="M99.0584 27.5718L99.03 31.1174L102.575 31.1458C102.591 31.1458 102.604 31.1328 102.604 31.1174V27.6001L99.0584 27.5718ZM102.575 32.2256H99.0584C98.7645 32.2254 98.4828 32.1086 98.275 31.9008C98.0672 31.693 97.9504 31.4113 97.9502 31.1174V27.6001C97.9502 26.9885 98.4468 26.4911 99.0584 26.4911H102.575C103.187 26.4911 103.685 26.9885 103.685 27.6009V31.1174C103.684 31.4115 103.567 31.6933 103.359 31.9011C103.151 32.1089 102.869 32.2256 102.575 32.2256ZM127.85 18.6755C126.865 18.6755 126.064 19.4775 126.064 20.4626C126.064 21.4492 126.866 22.2512 127.85 22.2512C128.837 22.2512 129.638 21.4492 129.638 20.4626C129.638 19.4775 128.836 18.6755 127.85 18.6755ZM127.85 23.331C127.09 23.3295 126.361 23.0267 125.824 22.489C125.287 21.9514 124.985 21.2226 124.984 20.4626C124.985 19.7026 125.287 18.974 125.824 18.4366C126.362 17.8992 127.09 17.5968 127.85 17.5957C128.61 17.5966 129.339 17.8989 129.876 18.4363C130.414 18.9737 130.717 19.7024 130.718 20.4626C130.717 21.2229 130.414 21.9519 129.877 22.4896C129.339 23.0274 128.61 23.3299 127.85 23.331" fill="#221E1F"/>
<path d="M94.2851 21.003H89.6312V19.9224H94.2859V21.0022L94.2851 21.003ZM83.5054 31.6854H82.4248V27.0315H83.5054V31.6854Z" fill="#221E1F"/>
<path d="M56.611 1.35864C55.6259 1.35864 54.8248 2.1606 54.8248 3.14484C54.8254 3.61853 55.0138 4.07266 55.3486 4.40776C55.6834 4.74286 56.1373 4.9316 56.611 4.93267C57.0848 4.93182 57.539 4.74316 57.8739 4.40803C58.2089 4.07291 58.3974 3.61867 58.398 3.14484C58.398 2.15979 57.596 1.35864 56.611 1.35864ZM56.611 6.01251C55.8508 6.01143 55.1221 5.70894 54.5847 5.17136C54.0473 4.63378 53.745 3.90499 53.7441 3.14484C53.745 2.3847 54.0475 1.65599 54.5851 1.11865C55.1228 0.581299 55.8517 0.279237 56.6118 0.278809C57.3718 0.279452 58.1005 0.581594 58.638 1.11892C59.1755 1.65624 59.4778 2.38484 59.4787 3.14484C59.478 3.90519 59.1757 4.63423 58.638 5.17188C58.1004 5.70953 57.3713 6.01186 56.611 6.01251" fill="#221E1F"/>
<path d="M1.10899 18.6755L1.07983 22.2204L4.62551 22.2512C4.64172 22.2512 4.65468 22.2366 4.65468 22.2204V18.7047L1.10899 18.6755ZM4.62471 23.331H1.10899C0.814858 23.3306 0.53291 23.2135 0.325004 23.0055C0.117098 22.7974 0.000214225 22.5153 0 22.2212V18.7055C0 18.0923 0.497384 17.5957 1.10899 17.5957H4.62471C5.23712 17.5957 5.7345 18.0923 5.7345 18.7055V22.2212C5.7345 22.8336 5.23712 23.331 4.62471 23.331V23.331ZM29.5782 18.6755C28.5923 18.6755 27.7912 19.4775 27.7912 20.4626C27.7912 21.4492 28.5931 22.2512 29.5782 22.2512C30.5632 22.2512 31.3652 21.4492 31.3652 20.4626C31.3652 19.4775 30.5632 18.6755 29.5782 18.6755ZM29.5782 23.331C28.8178 23.3299 28.0889 23.0274 27.5513 22.4896C27.0138 21.9519 26.7114 21.2229 26.7105 20.4626C26.7116 19.7024 27.0141 18.9737 27.5517 18.4363C28.0893 17.8989 28.818 17.5966 29.5782 17.5957C30.3384 17.5963 31.0673 17.8986 31.6049 18.436C32.1426 18.9735 32.445 19.7023 32.4458 20.4626C32.445 21.2229 32.1426 21.9519 31.605 22.4896C31.0674 23.0274 30.3385 23.3299 29.5782 23.331V23.331ZM21.2595 22.7907H20.1805V18.136H21.2604V22.7907" fill="#F00804"/>
<path d="M23.0458 21.0025H18.392V19.9219H23.0458V21.0017V21.0025ZM12.2654 31.6849H11.1855V27.031H12.2654V31.6849Z" fill="#F00804"/>
<path d="M14.0523 29.8987H9.39844V28.8189H14.0523V29.8987ZM37.0163 27.5714L36.9725 31.1009L40.502 31.1454C40.5263 31.1454 40.5465 31.126 40.5465 31.1009V27.6167L37.0163 27.5714ZM40.502 32.2252H37.0163C36.7182 32.2248 36.4324 32.1062 36.2217 31.8954C36.0109 31.6847 35.8923 31.3989 35.8919 31.1009V27.6167C35.8919 26.9954 36.3965 26.4907 37.0163 26.4907H40.502C40.8003 26.4912 41.0863 26.61 41.2971 26.8211C41.508 27.0322 41.6264 27.3184 41.6264 27.6167V31.1C41.6262 31.3983 41.5077 31.6842 41.2969 31.8952C41.0861 32.1061 40.8002 32.2248 40.502 32.2252" fill="#F00804"/>
<path d="M39.3004 22.7904H38.2197V18.1357H39.3004V22.7904Z" fill="#F00804"/>
<path d="M41.0865 21.0025H36.4326V19.9219H41.0865V21.0017" fill="#F00804"/>
<path d="M2.86685 10.2532C2.39288 10.2541 1.9386 10.4429 1.60361 10.7782C1.26861 11.1135 1.08026 11.5679 1.07983 12.0419C1.07983 13.0269 1.8818 13.8281 2.86685 13.8281C3.85271 13.8281 4.65468 13.0261 4.65468 12.0419C4.65425 11.5678 4.46578 11.1132 4.13061 10.7779C3.79544 10.4426 3.34095 10.2539 2.86685 10.2532V10.2532ZM2.86685 14.9087C2.10678 14.9079 1.37808 14.6055 0.840629 14.0681C0.303176 13.5306 0.000857628 12.8019 0 12.0419C0.000857199 11.2815 0.303233 10.5525 0.840814 10.0148C1.3784 9.47708 2.1073 9.17449 2.86766 9.17342C4.44811 9.17342 5.73531 10.4614 5.73531 12.0419C5.73424 12.802 5.43175 13.5307 4.89417 14.0681C4.35658 14.6056 3.62781 14.9079 2.86766 14.9087H2.86685ZM11.7266 1.35864C10.7408 1.35864 9.93878 2.1606 9.93878 3.14484C9.93943 3.61881 10.128 4.07319 10.4631 4.40833C10.7983 4.74347 11.2527 4.93203 11.7266 4.93267C12.2003 4.9316 12.6543 4.74286 12.989 4.40776C13.3238 4.07266 13.5122 3.61853 13.5128 3.14484C13.5128 2.15979 12.7109 1.35864 11.7266 1.35864ZM11.7266 6.01251C10.9663 6.01165 10.2374 5.70926 9.69982 5.17166C9.16222 4.63405 8.85981 3.90513 8.85896 3.14484C8.85981 2.3847 9.16227 1.65599 9.69992 1.11865C10.2376 0.581299 10.9665 0.279237 11.7266 0.278809C13.3063 0.278809 14.5935 1.56358 14.5935 3.14484C14.5926 3.90513 14.2902 4.63405 13.7526 5.17166C13.215 5.70926 12.4861 6.01165 11.7258 6.01251H11.7266ZM29.5782 10.2532C29.1042 10.2541 28.6499 10.4429 28.3149 10.7782C27.98 11.1135 27.7916 11.5679 27.7912 12.0419C27.7912 13.0269 28.5931 13.8281 29.5782 13.8281C30.5632 13.8281 31.3652 13.0261 31.3652 12.0419C31.3648 11.5679 31.1764 11.1135 30.8414 10.7782C30.5064 10.4429 30.0521 10.2541 29.5782 10.2532ZM29.5782 14.9087C28.818 14.9079 28.0893 14.6056 27.5517 14.0681C27.0141 13.5307 26.7116 12.802 26.7105 12.0419C26.7114 11.2815 27.0138 10.5525 27.5513 10.0148C28.0889 9.47708 28.8178 9.17449 29.5782 9.17342C31.1594 9.17342 32.4458 10.4614 32.4458 12.0419C32.445 12.8021 32.1426 13.5309 31.6049 14.0684C31.0673 14.6059 30.3384 14.9081 29.5782 14.9087V14.9087ZM18.9614 10.2532L18.9322 13.7989L22.4771 13.8281C22.4933 13.8281 22.5063 13.8143 22.5063 13.7989V10.2832L18.9614 10.2532ZM22.4771 14.9087H18.9614C18.3498 14.9087 17.8524 14.4105 17.8524 13.7989V10.2832C17.8524 9.6708 18.3498 9.17342 18.9622 9.17342H22.4779C23.0895 9.17342 23.5869 9.6708 23.5869 10.2832V13.7989C23.5869 14.0933 23.47 14.3756 23.2618 14.5837C23.0537 14.7918 22.7714 14.9087 22.4771 14.9087ZM1.10899 1.35864L1.07983 4.90353L4.62551 4.93267C4.64172 4.93267 4.65468 4.91973 4.65468 4.90353V1.387L1.10899 1.35864ZM4.62471 6.01251H1.10899C0.814792 6.01229 0.532718 5.89528 0.324766 5.68717C0.116813 5.47907 -7.83731e-08 5.19691 0 4.90271V1.387C0.000428997 1.09308 0.117431 0.811329 0.325337 0.603574C0.533244 0.39582 0.815073 0.279023 1.10899 0.278809H4.62471C5.23712 0.278809 5.7345 0.775393 5.7345 1.387V4.90271C5.7345 5.19705 5.61758 5.47934 5.40945 5.68747C5.20133 5.8956 4.91904 6.01251 4.62471 6.01251" fill="#F00804"/>
<path d="M29.5774 1.35864C28.5916 1.35864 27.7904 2.1606 27.7904 3.14484C27.7911 3.61867 27.9795 4.07291 28.3145 4.40803C28.6495 4.74315 29.1036 4.93182 29.5774 4.93267C30.0513 4.93182 30.5054 4.74315 30.8404 4.40803C31.1754 4.07291 31.3638 3.61867 31.3645 3.14484C31.3645 2.15979 30.5625 1.35864 29.5774 1.35864ZM29.5774 6.01251C28.8171 6.01165 28.0883 5.70926 27.5506 5.17166C27.013 4.63405 26.7106 3.90513 26.7098 3.14484C26.7109 2.38477 27.0134 1.65617 27.551 1.11887C28.0886 0.581568 28.8174 0.279451 29.5774 0.278809C30.3376 0.279237 31.0665 0.581299 31.6041 1.11865C32.1418 1.65599 32.4442 2.3847 32.4451 3.14484C32.4445 3.90519 32.1421 4.63423 31.6045 5.17188C31.0668 5.70953 30.3378 6.01186 29.5774 6.01251V6.01251ZM12.2654 14.3684H11.1855V9.71291H12.2654V14.3684Z" fill="#F00804"/>
<path d="M14.0523 12.5816H9.39844V11.5018H14.0523V12.5816ZM37.0163 10.2527L36.9725 13.7838L40.502 13.8275C40.5263 13.8275 40.5465 13.8073 40.5465 13.7838V10.2972L37.0163 10.2527ZM40.502 14.9082H37.0163C36.7182 14.9077 36.4324 14.7891 36.2217 14.5784C36.0109 14.3676 35.8923 14.0818 35.8919 13.7838V10.2972C35.8923 9.99916 36.0109 9.71341 36.2217 9.50264C36.4324 9.29187 36.7182 9.17328 37.0163 9.17285H40.502C40.8001 9.17328 41.0858 9.29187 41.2966 9.50264C41.5073 9.71341 41.6259 9.99916 41.6264 10.2972V13.7838C41.6259 14.0818 41.5073 14.3676 41.2966 14.5784C41.0858 14.7891 40.8001 14.9077 40.502 14.9082" fill="#F00804"/>
<path d="M39.3004 5.47271H38.2197V0.818848H39.3004V5.47271Z" fill="#F00804"/>
<path d="M41.0865 3.68481H36.4326V2.60498H41.0865V3.68481Z" fill="#F00804"/>
<path d="M588.274 18.3975C587.8 18.3984 587.346 18.5869 587.011 18.9219C586.676 19.2568 586.488 19.7109 586.487 20.1845C586.487 21.1696 587.288 21.9708 588.274 21.9708C589.259 21.9708 590.061 21.1696 590.061 20.1845C590.061 19.1995 589.259 18.3975 588.274 18.3975ZM588.274 23.0514C587.514 23.0507 586.785 22.7484 586.247 22.2108C585.709 21.6731 585.407 20.9441 585.406 20.1837C585.407 19.4236 585.71 18.6949 586.247 18.1575C586.785 17.62 587.514 17.3178 588.274 17.3169C589.034 17.318 589.763 17.6205 590.3 18.158C590.838 18.6956 591.14 19.4244 591.141 20.1845C591.14 20.9446 590.838 21.6733 590.3 22.2108C589.763 22.7482 589.034 23.0505 588.274 23.0514" fill="#F00804"/>
<path d="M586.516 18.3975L586.487 21.9432L590.032 21.9708C590.048 21.9708 590.061 21.9578 590.061 21.9432V18.4259L586.516 18.3975ZM590.032 23.0514H586.516C586.222 23.0514 585.94 22.9347 585.732 22.7269C585.524 22.5191 585.407 22.2373 585.406 21.9432V18.4259C585.406 17.8135 585.904 17.3169 586.516 17.3169H590.032C590.644 17.3169 591.141 17.8135 591.141 18.4267V21.9424C591.141 22.2366 591.024 22.5187 590.815 22.7266C590.607 22.9346 590.325 23.0514 590.031 23.0514" fill="#F00804"/>
<path d="M586.516 27.2935L586.487 30.8384L590.032 30.8668C590.048 30.8668 590.061 30.8546 590.061 30.8384V27.3219L586.516 27.2935ZM590.032 31.9466H586.516C586.222 31.9466 585.94 31.8299 585.732 31.6221C585.524 31.4143 585.407 31.1325 585.406 30.8384V27.3219C585.406 27.0277 585.523 26.7456 585.732 26.5377C585.94 26.3297 586.222 26.2129 586.516 26.2129H590.032C590.644 26.2129 591.141 26.7103 591.141 27.3219V30.8376C591.141 31.1319 591.024 31.4142 590.816 31.6223C590.608 31.8305 590.325 31.9474 590.031 31.9474L590.032 31.9466ZM597.672 31.4063H596.592V26.7532H597.672V31.4063" fill="#F00804"/>
<path d="M599.459 29.6203H594.806V28.5405H599.46V29.6203H599.459ZM586.516 9.97523L586.487 13.5201L590.032 13.5493C590.048 13.5493 590.061 13.5355 590.061 13.5201V10.0044L586.516 9.97523ZM590.032 14.6299H586.516C586.222 14.6299 585.939 14.513 585.731 14.3049C585.523 14.0967 585.406 13.8145 585.406 13.5201V10.0044C585.406 9.39199 585.904 8.89461 586.516 8.89461H590.032C590.644 8.89461 591.141 9.39199 591.141 10.0044V13.5201C591.141 13.8145 591.024 14.0967 590.816 14.3049C590.608 14.513 590.325 14.6299 590.031 14.6299H590.032ZM597.132 1.07983C596.658 1.08048 596.204 1.26881 595.869 1.60361C595.534 1.9384 595.345 2.39235 595.344 2.86603C595.345 3.34 595.533 3.79438 595.869 4.12952C596.204 4.46467 596.658 4.65322 597.132 4.65386C598.118 4.65386 598.92 3.85189 598.92 2.86603C598.92 1.88098 598.118 1.07983 597.132 1.07983ZM597.132 5.7337C596.372 5.73284 595.643 5.43043 595.105 4.89282C594.568 4.35522 594.265 3.62632 594.264 2.86603C594.266 2.10603 594.568 1.37754 595.106 0.840282C595.643 0.303028 596.372 0.000856707 597.132 0C597.892 0.000856707 598.621 0.303028 599.158 0.840282C599.696 1.37754 599.998 2.10603 600 2.86603C599.999 3.62632 599.696 4.35522 599.159 4.89282C598.621 5.43043 597.892 5.73284 597.132 5.7337Z" fill="#F00804"/>
<path d="M597.672 14.0894H596.592V9.43555H597.672V14.0894Z" fill="#F00804"/>
<path d="M599.46 12.3023H594.806V11.2217H599.46V12.3023" fill="#F00804"/>
<path d="M27.8188 27.5714L27.7904 31.117L31.3361 31.1454C31.3523 31.1454 31.3645 31.1324 31.3645 31.117V27.5997L27.8188 27.5714ZM31.3361 32.2252H27.8188C27.5247 32.2252 27.2427 32.1085 27.0346 31.9007C26.8265 31.693 26.7094 31.4111 26.709 31.117V27.5997C26.709 26.9881 27.2064 26.4907 27.8188 26.4907H31.3345C31.4802 26.4907 31.6246 26.5194 31.7592 26.5752C31.8938 26.631 32.0162 26.7127 32.1192 26.8158C32.2223 26.9188 32.304 27.0412 32.3598 27.1758C32.4156 27.3105 32.4443 27.4548 32.4443 27.6005V31.117C32.4439 31.4111 32.3268 31.693 32.1187 31.9007C31.9106 32.1085 31.6286 32.2252 31.3345 32.2252" fill="#F00804"/>
<path d="M27.8188 10.2527L27.7904 13.7984L31.3361 13.8275C31.3515 13.8275 31.3645 13.8138 31.3645 13.7984V10.2826L27.8188 10.2527ZM31.3361 14.9082H27.8188C27.5244 14.9082 27.2422 14.7912 27.034 14.5831C26.8259 14.375 26.709 14.0927 26.709 13.7984V10.2826C26.709 9.67023 27.2064 9.17285 27.8188 9.17285H31.3345C31.9461 9.17285 32.4443 9.67023 32.4443 10.2826V13.7984C32.4443 13.9441 32.4156 14.0884 32.3598 14.2231C32.304 14.3577 32.2223 14.4801 32.1192 14.5831C32.0162 14.6862 31.8938 14.7679 31.7592 14.8237C31.6246 14.8795 31.4802 14.9082 31.3345 14.9082" fill="#F00804"/>
</svg>
